<svg width="219" height="69" viewBox="0 0 219 69" fill="none" xmlns="http://www.w3.org/2000/svg">
<path d="M27.456 9.86764C27.456 10.009 27.346 10.1032 27.126 10.1503C26.906 10.1503 26.774 10.0797 26.73 9.93831C26.598 7.44127 25.894 5.50959 24.618 4.14328C23.342 2.72986 21.648 2.02315 19.536 2.02315H15.51C14.014 2.02315 12.892 2.14094 12.144 2.37651C11.396 2.61208 10.868 3.0361 10.56 3.64859C10.296 4.26107 10.164 5.15624 10.164 6.33409V21.811H16.83C19.162 21.811 20.812 21.4341 21.78 20.6803C22.792 19.8794 23.298 18.6073 23.298 16.8641C23.298 16.7698 23.43 16.7227 23.694 16.7227C23.958 16.7227 24.09 16.7698 24.09 16.8641L24.024 22.5884C24.024 23.9547 24.046 24.9912 24.09 25.6979L24.156 29.0902C24.156 29.1844 24.024 29.2315 23.76 29.2315C23.496 29.2315 23.364 29.1844 23.364 29.0902C23.364 27.0171 22.836 25.533 21.78 24.6379C20.768 23.7427 19.052 23.2951 16.632 23.2951H10.164V38.7014C10.164 40.2091 10.34 41.3162 10.692 42.023C11.088 42.6826 11.836 43.1537 12.936 43.4364C14.036 43.7191 15.774 43.8604 18.15 43.8604C18.282 43.8604 18.348 44.0017 18.348 44.2844C18.348 44.5671 18.282 44.7085 18.15 44.7085C16.346 44.7085 14.938 44.6849 13.926 44.6378L7.986 44.5671L3.498 44.6378C2.706 44.6849 1.584 44.7085 0.132 44.7085C0.044 44.7085 0 44.5671 0 44.2844C0 44.0017 0.044 43.8604 0.132 43.8604C1.804 43.8604 3.036 43.7426 3.828 43.507C4.62 43.2715 5.148 42.8239 5.412 42.1643C5.72 41.4576 5.874 40.3975 5.874 38.9841V6.26342C5.874 4.85 5.72 3.81349 5.412 3.15389C5.148 2.49429 4.62 2.04671 3.828 1.81114C3.08 1.52846 1.87 1.38711 0.198 1.38711C0.11 1.38711 0.066 1.24577 0.066 0.963089C0.066 0.680404 0.11 0.539062 0.198 0.539062H26.73C27.126 0.539062 27.324 0.751075 27.324 1.1751L27.456 9.86764ZM49.0901 45.5565C46.0101 45.5565 43.2601 44.7791 40.8401 43.2244C38.4641 41.6696 36.6161 39.573 35.2961 36.9346C33.9761 34.2963 33.3161 31.4459 33.3161 28.3834C33.3161 24.7086 34.1961 21.5519 35.9561 18.9135C37.7601 16.228 40.0261 14.2021 42.7541 12.8358C45.5261 11.4695 48.3421 10.7864 51.2021 10.7864C54.2821 10.7864 56.9881 11.6109 59.3201 13.2598C61.6961 14.8617 63.5001 16.9583 64.7321 19.5496C66.0081 22.1408 66.6461 24.8499 66.6461 27.6767C66.6461 30.8334 65.8541 33.8016 64.2701 36.5813C62.6861 39.3139 60.5521 41.5047 57.8681 43.1537C55.1841 44.7556 52.2581 45.5565 49.0901 45.5565ZM50.8061 44.0724C54.2381 44.0724 56.9661 42.7768 58.9901 40.1855C61.0581 37.5942 62.0921 34.0136 62.0921 29.4435C62.0921 26.2869 61.5641 23.4129 60.5081 20.8216C59.4961 18.2304 58.0001 16.1574 56.0201 14.6026C54.0401 13.0478 51.6861 12.2705 48.9581 12.2705C45.4381 12.2705 42.7101 13.5425 40.7741 16.0867C38.8381 18.5837 37.8701 22.0937 37.8701 26.6167C37.8701 29.8675 38.3761 32.8122 39.3881 35.4506C40.4441 38.0889 41.9401 40.1855 43.8761 41.7403C45.8561 43.295 48.1661 44.0724 50.8061 44.0724ZM87.1819 45.5565C84.1019 45.5565 81.3519 44.7791 78.9319 43.2244C76.5559 41.6696 74.7079 39.573 73.3879 36.9346C72.0679 34.2963 71.4079 31.4459 71.4079 28.3834C71.4079 24.7086 72.2879 21.5519 74.0479 18.9135C75.8519 16.228 78.1179 14.2021 80.8459 12.8358C83.6179 11.4695 86.4339 10.7864 89.2939 10.7864C92.3739 10.7864 95.0799 11.6109 97.412 13.2598C99.788 14.8617 101.592 16.9583 102.824 19.5496C104.1 22.1408 104.738 24.8499 104.738 27.6767C104.738 30.8334 103.946 33.8016 102.362 36.5813C100.778 39.3139 98.644 41.5047 95.9599 43.1537C93.2759 44.7556 90.3499 45.5565 87.1819 45.5565ZM88.8979 44.0724C92.3299 44.0724 95.0579 42.7768 97.0819 40.1855C99.15 37.5942 100.184 34.0136 100.184 29.4435C100.184 26.2869 99.656 23.4129 98.6 20.8216C97.588 18.2304 96.0919 16.1574 94.1119 14.6026C92.1319 13.0478 89.7779 12.2705 87.0499 12.2705C83.5299 12.2705 80.8019 13.5425 78.8659 16.0867C76.9299 18.5837 75.9619 22.0937 75.9619 26.6167C75.9619 29.8675 76.4679 32.8122 77.4799 35.4506C78.5359 38.0889 80.0319 40.1855 81.9679 41.7403C83.9479 43.295 86.2579 44.0724 88.8979 44.0724ZM125.208 44.9911C123.932 44.9911 122.546 44.9205 121.05 44.7791C120.522 44.732 119.862 44.6849 119.07 44.6378C118.278 44.5907 117.376 44.5671 116.364 44.5671L112.47 44.6378C111.722 44.6849 110.71 44.7085 109.434 44.7085C109.346 44.7085 109.302 44.5671 109.302 44.2844C109.302 44.0017 109.346 43.8604 109.434 43.8604C110.93 43.8604 112.008 43.7426 112.668 43.507C113.372 43.2715 113.834 42.8239 114.054 42.1643C114.318 41.4576 114.45 40.3975 114.45 38.9841V17.3588C114.45 15.9453 114.318 14.9088 114.054 14.2492C113.834 13.5896 113.372 13.1421 112.668 12.9065C112.008 12.6238 110.952 12.4825 109.5 12.4825C109.412 12.4825 109.368 12.3411 109.368 12.0584C109.368 11.7758 109.412 11.6344 109.5 11.6344L112.47 11.7051C114.142 11.7993 115.44 11.8464 116.364 11.8464C117.728 11.8464 119.092 11.7758 120.456 11.6344C122.216 11.5402 123.536 11.4931 124.416 11.4931C128.112 11.4931 131.302 12.1998 133.986 13.6132C136.67 15.0266 138.716 16.9819 140.124 19.4789C141.532 21.9759 142.236 24.8028 142.236 27.9594C142.236 31.2103 141.51 34.1314 140.058 36.7226C138.606 39.3139 136.582 41.3398 133.986 42.8003C131.434 44.2609 128.508 44.9911 125.208 44.9911ZM124.416 44.0017C128.508 44.0017 131.698 42.6826 133.986 40.0442C136.318 37.4058 137.484 33.6367 137.484 28.7368C137.484 24.0254 136.34 20.1385 134.052 17.0761C131.808 14.0137 128.42 12.4825 123.888 12.4825C121.864 12.4825 120.434 12.8358 119.598 13.5425C118.806 14.2492 118.41 15.5684 118.41 17.5001V38.2067C118.41 40.3269 118.806 41.8345 119.598 42.7297C120.434 43.5777 122.04 44.0017 124.416 44.0017ZM156.383 38.9841C156.383 40.4446 156.493 41.5047 156.713 42.1643C156.977 42.8239 157.439 43.2715 158.099 43.507C158.759 43.7426 159.837 43.8604 161.333 43.8604C161.421 43.8604 161.465 44.0017 161.465 44.2844C161.465 44.5671 161.421 44.7085 161.333 44.7085C160.101 44.7085 159.133 44.6849 158.429 44.6378L154.271 44.5671L150.377 44.6378C149.629 44.6849 148.617 44.7085 147.341 44.7085C147.253 44.7085 147.209 44.5671 147.209 44.2844C147.209 44.0017 147.253 43.8604 147.341 43.8604C148.837 43.8604 149.915 43.7426 150.575 43.507C151.235 43.2715 151.675 42.8239 151.895 42.1643C152.159 41.5047 152.291 40.4446 152.291 38.9841V17.3588C152.291 15.9453 152.159 14.9088 151.895 14.2492C151.675 13.5896 151.213 13.1421 150.509 12.9065C149.849 12.6238 148.793 12.4825 147.341 12.4825C147.253 12.4825 147.209 12.3411 147.209 12.0584C147.209 11.7758 147.253 11.6344 147.341 11.6344L150.377 11.7051C151.961 11.7993 153.259 11.8464 154.271 11.8464C155.415 11.8464 156.823 11.7993 158.495 11.7051L161.333 11.6344C161.421 11.6344 161.465 11.7758 161.465 12.0584C161.465 12.3411 161.421 12.4825 161.333 12.4825C159.925 12.4825 158.869 12.6238 158.165 12.9065C157.461 13.1892 156.977 13.6839 156.713 14.3906C156.493 15.0502 156.383 16.0867 156.383 17.5001V38.9841ZM191.163 35.3092C191.163 35.1679 191.273 35.0972 191.493 35.0972C191.757 35.0972 191.889 35.1679 191.889 35.3092C191.581 38.7014 191.427 41.4811 191.427 43.6484C191.427 44.0253 191.361 44.308 191.229 44.4964C191.097 44.6378 190.833 44.7085 190.437 44.7085H166.281C166.193 44.7085 166.149 44.5671 166.149 44.2844C166.149 44.0017 166.193 43.8604 166.281 43.8604C167.733 43.8604 168.789 43.7426 169.449 43.507C170.109 43.2715 170.549 42.8239 170.769 42.1643C171.033 41.4576 171.165 40.3975 171.165 38.9841V17.3588C171.165 15.9453 171.033 14.9088 170.769 14.2492C170.549 13.5896 170.109 13.1421 169.449 12.9065C168.789 12.6238 167.733 12.4825 166.281 12.4825C166.193 12.4825 166.149 12.3411 166.149 12.0584C166.149 11.7758 166.193 11.6344 166.281 11.6344H189.249C189.689 11.6344 189.909 11.8229 189.909 12.1998L189.975 16.5814C190.019 17.4766 190.041 18.6073 190.041 19.9736C190.041 20.1149 189.909 20.1856 189.645 20.1856C189.381 20.1856 189.249 20.1149 189.249 19.9736C189.073 17.8064 188.325 16.0396 187.005 14.6733C185.729 13.2598 184.145 12.5531 182.253 12.5531H180.405C178.865 12.5531 177.743 12.6945 177.039 12.9772C176.335 13.2127 175.851 13.6603 175.587 14.3199C175.323 14.9795 175.191 16.016 175.191 17.4294V27.1114C179.459 27.0643 182.363 26.9465 183.903 26.758C185.487 26.5224 186.389 26.4047 186.609 26.4047C186.829 26.4047 186.939 26.8994 186.939 27.8888C186.939 28.9724 186.829 29.5142 186.609 29.5142C186.433 29.5142 185.553 29.3964 183.969 29.1608C182.385 28.8781 179.459 28.6897 175.191 28.5955V38.7014C175.191 40.0677 175.323 41.1042 175.587 41.8109C175.851 42.4705 176.335 42.9417 177.039 43.2244C177.787 43.4599 178.909 43.5777 180.405 43.5777H183.573C185.333 43.5777 186.917 42.8239 188.325 41.3162C189.733 39.7615 190.679 37.7591 191.163 35.3092ZM202.375 17.3588C202.375 18.7722 202.705 20.0207 203.365 21.1043C204.069 22.1408 204.927 23.0124 205.939 23.7192C206.951 24.4259 208.293 25.2504 209.965 26.1926C211.769 27.2292 213.221 28.1479 214.321 28.9488C215.421 29.7026 216.345 30.6685 217.093 31.8463C217.841 33.0242 218.215 34.4376 218.215 36.0866C218.215 37.8298 217.753 39.4317 216.829 40.8922C215.949 42.3056 214.673 43.4364 213.001 44.2844C211.329 45.1325 209.371 45.5565 207.127 45.5565C203.915 45.5565 201.253 44.732 199.141 43.083C198.921 42.9888 198.767 42.8475 198.679 42.659C198.635 42.4705 198.591 42.1643 198.547 41.7403L197.887 34.7438C197.843 34.5554 197.931 34.4376 198.151 34.3905C198.415 34.3434 198.591 34.414 198.679 34.6025C199.295 37.3351 200.505 39.6673 202.309 41.5989C204.157 43.4835 206.203 44.4258 208.447 44.4258C209.987 44.4258 211.307 43.9546 212.407 43.0123C213.551 42.023 214.123 40.5153 214.123 38.4894C214.123 36.3222 213.463 34.5554 212.143 33.1891C210.823 31.8228 208.909 30.4329 206.401 29.0195C204.641 27.983 203.233 27.0878 202.177 26.334C201.165 25.533 200.307 24.5672 199.603 23.4365C198.899 22.3057 198.547 20.9394 198.547 19.3376C198.547 16.6521 199.515 14.5555 201.451 13.0478C203.387 11.5402 205.741 10.7864 208.513 10.7864C210.845 10.7864 213.045 11.3282 215.113 12.4118C215.509 12.6474 215.751 12.8358 215.839 12.9772C215.971 13.0714 216.059 13.2834 216.103 13.6132L216.565 19.7616C216.565 19.95 216.433 20.0678 216.169 20.1149C215.949 20.1621 215.817 20.0914 215.773 19.9029C215.553 18.7251 215.047 17.5237 214.255 16.2987C213.507 15.0266 212.517 13.9666 211.285 13.1185C210.097 12.2705 208.777 11.8464 207.325 11.8464C205.741 11.8464 204.509 12.3647 203.629 13.4012C202.793 14.4377 202.375 15.7569 202.375 17.3588Z" fill="url(#paint0_linear_56_10)"/>
<path d="M107.568 53.4095C107.568 53.4481 107.538 53.4738 107.478 53.4866C107.418 53.4866 107.382 53.4674 107.37 53.4288C107.334 52.7478 107.142 52.221 106.794 51.8484C106.446 51.4629 105.984 51.2701 105.408 51.2701H104.31C103.902 51.2701 103.596 51.3023 103.392 51.3665C103.188 51.4308 103.044 51.5464 102.96 51.7134C102.888 51.8805 102.852 52.1246 102.852 52.4458V56.6668H104.67C105.306 56.6668 105.756 56.564 106.02 56.3584C106.296 56.14 106.434 55.7931 106.434 55.3177C106.434 55.292 106.47 55.2791 106.542 55.2791C106.614 55.2791 106.65 55.292 106.65 55.3177L106.632 56.8788C106.632 57.2515 106.638 57.5342 106.65 57.7269L106.668 58.652C106.668 58.6777 106.632 58.6906 106.56 58.6906C106.488 58.6906 106.452 58.6777 106.452 58.652C106.452 58.0867 106.308 57.6819 106.02 57.4378C105.744 57.1937 105.276 57.0716 104.616 57.0716H102.852V61.2733C102.852 61.6845 102.9 61.9864 102.996 62.1792C103.104 62.3591 103.308 62.4876 103.608 62.5647C103.908 62.6417 104.382 62.6803 105.03 62.6803C105.066 62.6803 105.084 62.7188 105.084 62.7959C105.084 62.873 105.066 62.9116 105.03 62.9116C104.538 62.9116 104.154 62.9052 103.878 62.8923L102.258 62.873L101.034 62.8923C100.818 62.9052 100.512 62.9116 100.116 62.9116C100.092 62.9116 100.08 62.873 100.08 62.7959C100.08 62.7188 100.092 62.6803 100.116 62.6803C100.572 62.6803 100.908 62.6482 101.124 62.5839C101.34 62.5197 101.484 62.3976 101.556 62.2177C101.64 62.025 101.682 61.7359 101.682 61.3504V52.4266C101.682 52.0411 101.64 51.7584 101.556 51.5785C101.484 51.3986 101.34 51.2766 101.124 51.2123C100.92 51.1352 100.59 51.0967 100.134 51.0967C100.11 51.0967 100.098 51.0581 100.098 50.981C100.098 50.9039 100.11 50.8654 100.134 50.8654H107.37C107.478 50.8654 107.532 50.9232 107.532 51.0389L107.568 53.4095ZM112.272 63.1621C111.576 63.1621 110.958 62.9823 110.418 62.6225C109.89 62.2498 109.482 61.7551 109.194 61.1384C108.906 60.5088 108.762 59.8278 108.762 59.0953C108.762 58.2601 108.948 57.5534 109.32 56.9752C109.704 56.3841 110.19 55.9473 110.778 55.6646C111.378 55.3691 111.984 55.2213 112.596 55.2213C113.304 55.2213 113.922 55.4076 114.45 55.7802C114.978 56.1529 115.38 56.6476 115.656 57.2643C115.944 57.8682 116.088 58.5107 116.088 59.1917C116.088 59.9884 115.914 60.6887 115.566 61.2926C115.218 61.8836 114.75 62.3462 114.162 62.6803C113.586 63.0015 112.956 63.1621 112.272 63.1621ZM112.794 62.7959C113.454 62.7959 113.964 62.5454 114.324 62.0443C114.684 61.5431 114.864 60.7722 114.864 59.7314C114.864 58.9347 114.738 58.2216 114.486 57.592C114.246 56.9624 113.91 56.4741 113.478 56.1272C113.046 55.7674 112.554 55.5875 112.002 55.5875C111.354 55.5875 110.85 55.8381 110.49 56.3392C110.142 56.8403 109.968 57.5599 109.968 58.4979C109.968 59.2817 110.088 60.0012 110.328 60.6565C110.568 61.3118 110.904 61.8322 111.336 62.2177C111.768 62.6032 112.254 62.7959 112.794 62.7959ZM120.885 63.1621C120.189 63.1621 119.571 62.9823 119.031 62.6225C118.503 62.2498 118.095 61.7551 117.807 61.1384C117.519 60.5088 117.375 59.8278 117.375 59.0953C117.375 58.2601 117.561 57.5534 117.933 56.9752C118.317 56.3841 118.803 55.9473 119.391 55.6646C119.991 55.3691 120.597 55.2213 121.209 55.2213C121.917 55.2213 122.535 55.4076 123.063 55.7802C123.591 56.1529 123.993 56.6476 124.269 57.2643C124.557 57.8682 124.701 58.5107 124.701 59.1917C124.701 59.9884 124.527 60.6887 124.179 61.2926C123.831 61.8836 123.363 62.3462 122.775 62.6803C122.199 63.0015 121.569 63.1621 120.885 63.1621ZM121.407 62.7959C122.067 62.7959 122.577 62.5454 122.937 62.0443C123.297 61.5431 123.477 60.7722 123.477 59.7314C123.477 58.9347 123.351 58.2216 123.099 57.592C122.859 56.9624 122.523 56.4741 122.091 56.1272C121.659 55.7674 121.167 55.5875 120.615 55.5875C119.967 55.5875 119.463 55.8381 119.103 56.3392C118.755 56.8403 118.581 57.5599 118.581 58.4979C118.581 59.2817 118.701 60.0012 118.941 60.6565C119.181 61.3118 119.517 61.8322 119.949 62.2177C120.381 62.6032 120.867 62.7959 121.407 62.7959ZM134.448 61.813C134.496 61.813 134.526 61.8451 134.538 61.9093C134.562 61.9736 134.556 62.0186 134.52 62.0443L132.54 63.0465C132.468 63.0722 132.42 63.085 132.396 63.085C132.24 63.085 132.108 62.9437 132 62.661C131.892 62.3783 131.832 61.9864 131.82 61.4853C131.376 61.9864 130.908 62.3912 130.416 62.6996C129.936 63.008 129.396 63.1621 128.796 63.1621C128.292 63.1621 127.824 63.008 127.392 62.6996C126.972 62.3912 126.63 61.9607 126.366 61.4082C126.114 60.8428 125.988 60.2004 125.988 59.4808C125.988 58.5685 126.198 57.7911 126.618 57.1487C127.038 56.5062 127.566 56.0244 128.202 55.7031C128.838 55.3819 129.468 55.2213 130.092 55.2213C130.728 55.2213 131.304 55.3883 131.82 55.7224V51.4051C131.82 50.9425 131.772 50.6084 131.676 50.4028C131.592 50.1972 131.442 50.0944 131.226 50.0944C131.07 50.0944 130.794 50.1844 130.398 50.3643H130.362C130.314 50.3643 130.278 50.3386 130.254 50.2872C130.242 50.2229 130.254 50.1779 130.29 50.1522L132.576 48.9573C132.6 48.9444 132.63 48.938 132.666 48.938C132.69 48.938 132.72 48.9573 132.756 48.9958C132.804 49.0215 132.828 49.0536 132.828 49.0922V60.7914C132.828 61.254 132.876 61.5881 132.972 61.7937C133.08 61.9993 133.248 62.1021 133.476 62.1021C133.824 62.1021 134.136 62.0121 134.412 61.8322L134.448 61.813ZM129.498 62.4683C129.93 62.4683 130.332 62.3591 130.704 62.1406C131.076 61.9093 131.448 61.5881 131.82 61.1769V56.9367C131.532 56.5126 131.214 56.185 130.866 55.9537C130.518 55.7224 130.098 55.6068 129.606 55.6068C128.85 55.6068 128.25 55.8959 127.806 56.4741C127.374 57.0395 127.158 57.849 127.158 58.9026C127.158 59.6093 127.26 60.2325 127.464 60.7722C127.668 61.3118 127.944 61.7294 128.292 62.025C128.652 62.3205 129.054 62.4683 129.498 62.4683ZM151.316 62.6803C151.364 62.6931 151.382 62.7381 151.37 62.8152C151.37 62.8795 151.352 62.9116 151.316 62.9116H149.372C148.832 62.9116 148.01 62.449 146.906 61.5239C145.934 62.6032 144.722 63.1429 143.27 63.1429C142.526 63.1429 141.902 63.0079 141.398 62.7381C140.906 62.4683 140.534 62.1149 140.282 61.678C140.042 61.2412 139.922 60.7722 139.922 60.271C139.922 59.5386 140.132 58.9026 140.552 58.3629C140.984 57.8104 141.602 57.2194 142.406 56.5897C142.19 56.2428 142.016 55.9216 141.884 55.626C141.536 54.8037 141.362 54.1034 141.362 53.5252C141.362 52.9727 141.488 52.4651 141.74 52.0025C141.992 51.5271 142.346 51.1545 142.802 50.8847C143.258 50.602 143.774 50.4606 144.35 50.4606C144.926 50.4606 145.418 50.6084 145.826 50.9039C146.246 51.1995 146.456 51.6877 146.456 52.3687C146.456 52.8699 146.336 53.326 146.096 53.7372C145.856 54.1484 145.556 54.5082 145.196 54.8165C144.848 55.1249 144.38 55.4847 143.792 55.8959C143.768 55.9087 143.666 55.9794 143.486 56.1079C144.326 57.5727 145.604 59.0054 147.32 60.406C147.74 59.6222 147.95 58.7548 147.95 57.804C147.95 57.3414 147.86 56.9945 147.68 56.7632C147.512 56.5319 147.176 56.4163 146.672 56.4163C146.636 56.4163 146.612 56.3777 146.6 56.3006C146.6 56.2235 146.624 56.185 146.672 56.185L150.434 56.1657C150.482 56.1657 150.506 56.2043 150.506 56.2814C150.506 56.3584 150.482 56.397 150.434 56.397C150.026 56.397 149.72 56.442 149.516 56.5319C149.312 56.609 149.168 56.7182 149.084 56.8596C149 57.0009 148.916 57.2258 148.832 57.5342C148.484 58.8062 148.07 59.8342 147.59 60.618C148.298 61.1705 148.982 61.6267 149.642 61.9864C150.302 62.3462 150.86 62.5775 151.316 62.6803ZM142.406 52.7157C142.406 53.7051 142.718 54.7587 143.342 55.8766C144.002 55.3498 144.506 54.8422 144.854 54.354C145.214 53.8528 145.394 53.2939 145.394 52.6771C145.394 52.1118 145.25 51.6685 144.962 51.3472C144.686 51.026 144.308 50.8654 143.828 50.8654C142.88 50.8654 142.406 51.4821 142.406 52.7157ZM144.08 62.5647C144.584 62.5647 145.058 62.4554 145.502 62.237C145.946 62.0186 146.342 61.7166 146.69 61.3311C146.618 61.2797 146.51 61.1898 146.366 61.0613C145.646 60.4702 144.95 59.8021 144.278 59.0568C143.606 58.3115 143.036 57.5663 142.568 56.821C142.1 57.2322 141.734 57.6626 141.47 58.1124C141.206 58.5492 141.074 59.0439 141.074 59.5965C141.074 60.1361 141.2 60.6373 141.452 61.0998C141.716 61.5496 142.076 61.9093 142.532 62.1792C143 62.4362 143.516 62.5647 144.08 62.5647ZM161.516 56.1272C162.464 56.2043 163.226 56.5448 163.802 57.1487C164.39 57.7397 164.684 58.4786 164.684 59.3652C164.684 60.0462 164.528 60.663 164.216 61.2155C163.904 61.768 163.472 62.2049 162.92 62.5261C162.38 62.8345 161.774 62.9887 161.102 62.9887C160.706 62.9887 160.274 62.9694 159.806 62.9309C159.638 62.918 159.44 62.9052 159.212 62.8923C158.984 62.8795 158.732 62.873 158.456 62.873L157.232 62.8923C157.016 62.9052 156.71 62.9116 156.314 62.9116C156.29 62.9116 156.278 62.873 156.278 62.7959C156.278 62.7188 156.29 62.6803 156.314 62.6803C156.77 62.6803 157.106 62.6482 157.322 62.5839C157.538 62.5068 157.688 62.3783 157.772 62.1984C157.856 62.0186 157.898 61.7359 157.898 61.3504V52.4266C157.898 52.0411 157.856 51.7584 157.772 51.5785C157.7 51.3986 157.556 51.2766 157.34 51.2123C157.124 51.1352 156.794 51.0967 156.35 51.0967C156.314 51.0967 156.296 51.0581 156.296 50.981C156.296 50.9039 156.314 50.8654 156.35 50.8654L157.232 50.8847C157.736 50.9104 158.144 50.9232 158.456 50.9232C158.672 50.9232 158.87 50.9168 159.05 50.9039C159.242 50.8911 159.404 50.8782 159.536 50.8654C159.908 50.8268 160.256 50.8076 160.58 50.8076C161.588 50.8076 162.344 51.0453 162.848 51.5207C163.352 51.9833 163.604 52.5936 163.604 53.3517C163.604 53.9685 163.418 54.521 163.046 55.0093C162.674 55.4847 162.164 55.8573 161.516 56.1272ZM160.184 51.0967C159.872 51.0967 159.638 51.1224 159.482 51.1738C159.338 51.2252 159.23 51.3472 159.158 51.54C159.086 51.7327 159.05 52.0411 159.05 52.4651V56.1272L159.86 56.1464C160.736 56.1464 161.384 55.9087 161.804 55.4333C162.224 54.945 162.434 54.3026 162.434 53.5059C162.434 52.7864 162.248 52.2081 161.876 51.7713C161.516 51.3215 160.952 51.0967 160.184 51.0967ZM160.832 62.6417C161.708 62.6417 162.356 62.404 162.776 61.9286C163.208 61.4403 163.424 60.7465 163.424 59.847C163.424 58.8705 163.154 58.0803 162.614 57.4763C162.086 56.8724 161.354 56.564 160.418 56.5512C160.034 56.5383 159.578 56.5512 159.05 56.5897V61.3504C159.05 61.6845 159.092 61.9415 159.176 62.1214C159.272 62.3012 159.446 62.4362 159.698 62.5261C159.962 62.6032 160.34 62.6417 160.832 62.6417ZM172.129 61.8322C172.165 61.8322 172.195 61.8579 172.219 61.9093C172.255 61.9479 172.261 61.9864 172.237 62.025C171.421 62.7702 170.545 63.1429 169.609 63.1429C168.901 63.1429 168.289 62.9694 167.773 62.6225C167.257 62.2755 166.867 61.8258 166.603 61.2733C166.351 60.7079 166.225 60.0976 166.225 59.4423C166.225 58.6713 166.393 57.971 166.729 57.3414C167.077 56.7118 167.545 56.2171 168.133 55.8573C168.721 55.4847 169.375 55.2984 170.095 55.2984C170.743 55.2984 171.247 55.4718 171.607 55.8188C171.967 56.1529 172.147 56.6154 172.147 57.2065C172.147 57.3607 172.129 57.4763 172.093 57.5534C172.069 57.6177 172.015 57.6498 171.931 57.6498L167.503 57.6884C167.443 58.0353 167.413 58.3694 167.413 58.6906C167.413 59.8085 167.665 60.7208 168.169 61.4275C168.673 62.1213 169.369 62.4683 170.257 62.4683C170.941 62.4683 171.559 62.2563 172.111 61.8322H172.129ZM169.483 55.6839C168.991 55.6839 168.577 55.8381 168.241 56.1464C167.917 56.442 167.689 56.866 167.557 57.4185L170.905 57.3414C170.905 56.8146 170.773 56.4098 170.509 56.1272C170.257 55.8316 169.915 55.6839 169.483 55.6839ZM180.682 55.4719C180.706 55.4719 180.718 55.5104 180.718 55.5875C180.718 55.6646 180.706 55.7031 180.682 55.7031C180.37 55.7031 180.106 55.8059 179.89 56.0115C179.686 56.2171 179.488 56.5833 179.296 57.1101L177.046 62.8923C177.022 62.9566 176.956 62.9887 176.848 62.9887C176.74 62.9887 176.674 62.9566 176.65 62.8923L174.13 57.0716C173.89 56.5191 173.686 56.1529 173.518 55.973C173.362 55.7931 173.164 55.7031 172.924 55.7031C172.888 55.7031 172.87 55.6646 172.87 55.5875C172.87 55.5104 172.888 55.4719 172.924 55.4719C173.164 55.4719 173.35 55.4783 173.482 55.4911L174.166 55.5104L175.336 55.4911C175.516 55.4783 175.756 55.4719 176.056 55.4719C176.092 55.4719 176.11 55.5104 176.11 55.5875C176.11 55.6646 176.092 55.7031 176.056 55.7031C175.336 55.7031 174.976 55.8573 174.976 56.1657C174.976 56.2557 175 56.352 175.048 56.4548L177.244 61.4275L178.936 57.0138C179.02 56.7696 179.062 56.5833 179.062 56.4548C179.062 56.1978 178.948 56.0115 178.72 55.8959C178.492 55.7674 178.132 55.7031 177.64 55.7031C177.616 55.7031 177.604 55.6646 177.604 55.5875C177.604 55.5104 177.616 55.4719 177.64 55.4719C177.964 55.4719 178.21 55.4783 178.378 55.4911L179.458 55.5104L180.088 55.4911C180.208 55.4783 180.406 55.4719 180.682 55.4719ZM187.281 61.8322C187.317 61.8322 187.347 61.8579 187.371 61.9093C187.407 61.9479 187.413 61.9864 187.389 62.025C186.573 62.7702 185.697 63.1429 184.761 63.1429C184.053 63.1429 183.441 62.9694 182.925 62.6225C182.409 62.2755 182.019 61.8258 181.755 61.2733C181.503 60.7079 181.377 60.0976 181.377 59.4423C181.377 58.6713 181.545 57.971 181.881 57.3414C182.229 56.7118 182.697 56.2171 183.285 55.8573C183.873 55.4847 184.527 55.2984 185.247 55.2984C185.895 55.2984 186.399 55.4718 186.759 55.8188C187.119 56.1529 187.299 56.6154 187.299 57.2065C187.299 57.3607 187.281 57.4763 187.245 57.5534C187.221 57.6177 187.167 57.6498 187.083 57.6498L182.655 57.6884C182.595 58.0353 182.565 58.3694 182.565 58.6906C182.565 59.8085 182.817 60.7208 183.321 61.4275C183.825 62.1213 184.521 62.4683 185.409 62.4683C186.093 62.4683 186.711 62.2563 187.263 61.8322H187.281ZM184.635 55.6839C184.143 55.6839 183.729 55.8381 183.393 56.1464C183.069 56.442 182.841 56.866 182.709 57.4185L186.057 57.3414C186.057 56.8146 185.925 56.4098 185.661 56.1272C185.409 55.8316 185.067 55.6839 184.635 55.6839ZM193.027 55.2984C193.291 55.2984 193.543 55.3755 193.783 55.5297C194.023 55.6839 194.143 55.8702 194.143 56.0886C194.143 56.2557 194.089 56.397 193.981 56.5126C193.885 56.6283 193.741 56.6861 193.549 56.6861C193.441 56.6861 193.345 56.6668 193.261 56.6283C193.189 56.5769 193.099 56.5062 192.991 56.4163C192.883 56.3135 192.781 56.2364 192.685 56.185C192.589 56.1336 192.475 56.1079 192.343 56.1079C192.187 56.1079 192.019 56.1786 191.839 56.3199C191.671 56.4484 191.401 56.7439 191.029 57.2065V61.3504C191.029 61.7359 191.071 62.0186 191.155 62.1984C191.251 62.3783 191.419 62.5068 191.659 62.5839C191.899 62.6482 192.271 62.6803 192.775 62.6803C192.823 62.6803 192.847 62.7188 192.847 62.7959C192.847 62.873 192.823 62.9116 192.775 62.9116C192.391 62.9116 192.085 62.9052 191.857 62.8923L190.525 62.873L189.535 62.8923C189.379 62.9052 189.163 62.9116 188.887 62.9116C188.851 62.9116 188.833 62.873 188.833 62.7959C188.833 62.7188 188.851 62.6803 188.887 62.6803C189.211 62.6803 189.451 62.6482 189.607 62.5839C189.763 62.5068 189.865 62.3783 189.913 62.1984C189.973 62.0186 190.003 61.7359 190.003 61.3504V57.5342C190.003 57.0973 189.955 56.7825 189.859 56.5897C189.763 56.397 189.601 56.3006 189.373 56.3006C189.181 56.3006 188.857 56.397 188.401 56.5897H188.365C188.317 56.5897 188.281 56.564 188.257 56.5126C188.245 56.4484 188.263 56.4034 188.311 56.3777L190.399 55.3177C190.423 55.3048 190.459 55.2984 190.507 55.2984C190.615 55.2984 190.729 55.4462 190.849 55.7417C190.969 56.0372 191.029 56.4163 191.029 56.8788V56.8981C191.521 56.2814 191.911 55.8637 192.199 55.6453C192.487 55.414 192.763 55.2984 193.027 55.2984ZM201.822 61.8708C201.87 61.8708 201.9 61.9029 201.912 61.9672C201.924 62.0186 201.906 62.0571 201.858 62.0828L200.004 63.0272C199.956 63.0529 199.908 63.0658 199.86 63.0658C199.704 63.0658 199.566 62.9565 199.446 62.7381C199.326 62.5197 199.248 62.2177 199.212 61.8322L198.096 62.4683C197.724 62.6739 197.418 62.8216 197.178 62.9116C196.938 63.0015 196.704 63.0465 196.476 63.0465C196.104 63.0465 195.816 62.9437 195.612 62.7381C195.42 62.5197 195.324 62.2498 195.324 61.9286C195.324 61.5817 195.444 61.3054 195.684 61.0998C195.936 60.8814 196.38 60.6565 197.016 60.4252L199.194 59.5965V57.9967C199.194 57.1487 199.092 56.5576 198.888 56.2235C198.684 55.8766 198.402 55.7031 198.042 55.7031C197.634 55.7031 197.316 55.8573 197.088 56.1657C196.86 56.4741 196.722 56.8467 196.674 57.2836C196.626 57.7719 196.404 58.016 196.008 58.016C195.816 58.016 195.666 57.9646 195.558 57.8618C195.45 57.759 195.396 57.6177 195.396 57.4378C195.396 57.1423 195.576 56.8274 195.936 56.4934C196.296 56.1593 196.728 55.8766 197.232 55.6453C197.748 55.414 198.21 55.2984 198.618 55.2984C199.098 55.2984 199.482 55.4783 199.77 55.838C200.058 56.185 200.202 56.7118 200.202 57.4185V60.83C200.202 61.2797 200.256 61.6074 200.364 61.813C200.472 62.0186 200.652 62.1214 200.904 62.1214C201.132 62.1214 201.426 62.0378 201.786 61.8708H201.822ZM199.194 61.5624V61.4468V59.8278L197.34 60.5794C197.064 60.6951 196.866 60.8236 196.746 60.9649C196.638 61.1063 196.584 61.2861 196.584 61.5046C196.584 61.7744 196.656 61.9864 196.8 62.1406C196.944 62.282 197.13 62.3526 197.358 62.3526C197.586 62.3526 197.832 62.2884 198.096 62.1599L199.194 61.5624ZM206.249 62.3526C206.969 62.4683 207.539 62.5903 207.959 62.7188C208.379 62.8345 208.739 63.0401 209.039 63.3356C209.339 63.644 209.489 64.068 209.489 64.6077C209.489 65.1859 209.285 65.7641 208.877 66.3423C208.469 66.9334 207.917 67.4153 207.221 67.7879C206.537 68.1605 205.799 68.3468 205.007 68.3468C204.155 68.3468 203.465 68.1284 202.937 67.6915C202.421 67.2546 202.163 66.6957 202.163 66.0147C202.163 64.9996 202.847 64.0038 204.215 63.0272C203.399 62.7702 202.991 62.3334 202.991 61.7166C202.991 61.3568 203.105 61.0099 203.333 60.6758C203.573 60.3289 203.891 60.0141 204.287 59.7314C203.819 59.5515 203.459 59.2752 203.207 58.9026C202.955 58.5171 202.829 58.0867 202.829 57.6113C202.829 56.9431 203.093 56.397 203.621 55.973C204.149 55.5489 204.815 55.3369 205.619 55.3369C206.411 55.3369 207.023 55.5361 207.455 55.9344C208.091 55.5232 208.733 55.3177 209.381 55.3177C209.417 55.3177 209.441 55.3626 209.453 55.4526C209.477 55.5425 209.489 55.6389 209.489 55.7417C209.489 55.8959 209.471 56.0501 209.435 56.2043C209.399 56.3584 209.357 56.4227 209.309 56.397C209.273 56.3841 209.141 56.3328 208.913 56.2428C208.697 56.1529 208.433 56.1079 208.121 56.1079C207.989 56.1079 207.839 56.1207 207.671 56.1464C207.983 56.5319 208.139 56.9881 208.139 57.5149C208.139 57.9518 208.025 58.3565 207.797 58.7291C207.569 59.0889 207.251 59.378 206.843 59.5965C206.435 59.8149 205.961 59.9241 205.421 59.9241C205.073 59.9241 204.767 59.8856 204.503 59.8085C204.299 59.9627 204.137 60.149 204.017 60.3674C203.897 60.573 203.837 60.7979 203.837 61.042C203.837 61.4403 204.005 61.723 204.341 61.8901C204.689 62.0443 205.205 62.1792 205.889 62.2948L206.249 62.3526ZM205.169 55.626C204.809 55.626 204.515 55.7545 204.287 56.0115C204.071 56.2685 203.963 56.6668 203.963 57.2065C203.963 57.9518 204.143 58.5493 204.503 58.999C204.875 59.4359 205.307 59.6543 205.799 59.6543C206.159 59.6543 206.453 59.5129 206.681 59.2303C206.909 58.9347 207.023 58.4914 207.023 57.9004C207.023 57.2322 206.837 56.6861 206.465 56.2621C206.105 55.8381 205.673 55.626 205.169 55.626ZM205.727 67.7686C206.315 67.7686 206.819 67.653 207.239 67.4217C207.671 67.1904 207.995 66.882 208.211 66.4965C208.439 66.1239 208.553 65.7191 208.553 65.2823C208.553 64.7811 208.403 64.3957 208.103 64.1258C207.803 63.856 207.449 63.6697 207.041 63.5669C206.645 63.4641 206.081 63.3613 205.349 63.2585C204.977 63.2071 204.719 63.1621 204.575 63.1236C204.143 63.4191 203.807 63.7404 203.567 64.0873C203.339 64.4342 203.225 64.8711 203.225 65.3979C203.225 66.1175 203.447 66.6893 203.891 67.1133C204.347 67.5502 204.959 67.7686 205.727 67.7686ZM216.021 61.8322C216.057 61.8322 216.087 61.8579 216.111 61.9093C216.147 61.9479 216.153 61.9864 216.129 62.025C215.313 62.7702 214.437 63.1429 213.501 63.1429C212.793 63.1429 212.181 62.9694 211.665 62.6225C211.149 62.2755 210.759 61.8258 210.495 61.2733C210.243 60.7079 210.117 60.0976 210.117 59.4423C210.117 58.6713 210.285 57.971 210.621 57.3414C210.969 56.7118 211.437 56.2171 212.025 55.8573C212.613 55.4847 213.267 55.2984 213.987 55.2984C214.635 55.2984 215.139 55.4718 215.499 55.8188C215.859 56.1529 216.039 56.6154 216.039 57.2065C216.039 57.3607 216.021 57.4763 215.985 57.5534C215.961 57.6177 215.907 57.6498 215.823 57.6498L211.395 57.6884C211.335 58.0353 211.305 58.3694 211.305 58.6906C211.305 59.8085 211.557 60.7208 212.061 61.4275C212.565 62.1213 213.261 62.4683 214.149 62.4683C214.833 62.4683 215.451 62.2563 216.003 61.8322H216.021ZM213.375 55.6839C212.883 55.6839 212.469 55.8381 212.133 56.1464C211.809 56.442 211.581 56.866 211.449 57.4185L214.797 57.3414C214.797 56.8146 214.665 56.4098 214.401 56.1272C214.149 55.8316 213.807 55.6839 213.375 55.6839Z" fill="white"/>
<defs>
<linearGradient id="paint0_linear_56_10" x1="109.36" y1="-20.6087" x2="109.36" y2="58.6285" gradientUnits="userSpaceOnUse">
<stop stop-color="#5E5E5E"/>
<stop offset="0.651042" stop-color="white"/>
<stop offset="1" stop-color="#656565"/>
</linearGradient>
</defs>
</svg>
