<svg width="297" height="99" viewBox="0 0 297 99" fill="none" xmlns="http://www.w3.org/2000/svg">
<g filter="url(#filter0_d_263_532)">
<path d="M41.0043 15.1682C41.0043 15.3526 40.8601 15.4755 40.5716 15.537C40.2831 15.537 40.11 15.4448 40.0523 15.2604C39.8792 12.0033 38.956 9.48358 37.2827 7.70136C35.6095 5.85769 33.388 4.93586 30.6185 4.93586H25.339C23.3772 4.93586 21.9059 5.08949 20.925 5.39677C19.9441 5.70405 19.2517 6.25715 18.8478 7.05608C18.5016 7.855 18.3285 9.02266 18.3285 10.5591V30.7473H27.07C30.128 30.7473 32.2918 30.2556 33.5611 29.2723C34.8882 28.2276 35.5518 26.5683 35.5518 24.2944C35.5518 24.1715 35.7249 24.11 36.0711 24.11C36.4173 24.11 36.5904 24.1715 36.5904 24.2944L36.5038 31.7613C36.5038 33.5435 36.5327 34.8955 36.5904 35.8174L36.6769 40.2422C36.6769 40.3651 36.5038 40.4266 36.1576 40.4266C35.8114 40.4266 35.6383 40.3651 35.6383 40.2422C35.6383 37.5381 34.9459 35.6023 33.5611 34.4346C32.2341 33.267 29.9838 32.6831 26.8103 32.6831H18.3285V52.7792C18.3285 54.7457 18.5593 56.19 19.0209 57.1118C19.5402 57.9722 20.5211 58.5867 21.9636 58.9555C23.4061 59.3242 25.6852 59.5086 28.801 59.5086C28.9741 59.5086 29.0606 59.6929 29.0606 60.0617C29.0606 60.4304 28.9741 60.6148 28.801 60.6148C26.4353 60.6148 24.5889 60.584 23.2618 60.5226L15.4724 60.4304L9.58709 60.5226C8.54851 60.584 7.07717 60.6148 5.1731 60.6148C5.0577 60.6148 5 60.4304 5 60.0617C5 59.6929 5.0577 59.5086 5.1731 59.5086C7.36567 59.5086 8.98125 59.3549 10.0198 59.0476C11.0584 58.7404 11.7508 58.1565 12.097 57.2962C12.5009 56.3743 12.7029 54.9916 12.7029 53.1479V10.4669C12.7029 8.6232 12.5009 7.27117 12.097 6.41079C11.7508 5.55041 11.0584 4.96658 10.0198 4.6593C9.03895 4.29057 7.45222 4.1062 5.25965 4.1062C5.14425 4.1062 5.08655 3.92184 5.08655 3.5531C5.08655 3.18437 5.14425 3 5.25965 3H40.0523C40.5716 3 40.8312 3.27655 40.8312 3.82965L41.0043 15.1682ZM69.3742 61.721C65.3352 61.721 61.729 60.7069 58.5555 58.6789C55.4398 56.6509 53.0164 53.9161 51.2854 50.4746C49.5545 47.033 48.689 43.315 48.689 39.3204C48.689 34.5268 49.843 30.4093 52.1509 26.9677C54.5166 23.4648 57.4881 20.8222 61.0655 19.0399C64.7005 17.2577 68.3933 16.3666 72.1437 16.3666C76.1827 16.3666 79.7312 17.4421 82.7892 19.5931C85.905 21.6825 88.2707 24.4173 89.8863 27.7974C91.5595 31.1775 92.3962 34.7112 92.3962 38.3985C92.3962 42.516 91.3576 46.3878 89.2804 50.0136C87.2032 53.5781 84.4048 56.4358 80.8852 58.5867C77.3655 60.6762 73.5285 61.721 69.3742 61.721ZM71.6244 59.7851C76.125 59.7851 79.7023 58.0951 82.3565 54.715C85.0684 51.3349 86.4243 46.6643 86.4243 40.7031C86.4243 36.5856 85.7319 32.8368 84.3471 29.4567C83.02 26.0766 81.0583 23.3726 78.4618 21.3445C75.8653 19.3165 72.7784 18.3025 69.2011 18.3025C64.5851 18.3025 61.0078 19.9618 58.469 23.2804C55.9302 26.5376 54.6609 31.116 54.6609 37.0158C54.6609 41.2562 55.3244 45.0972 56.6515 48.5387C58.0363 51.9802 59.998 54.715 62.5368 56.7431C65.1333 58.7711 68.1625 59.7851 71.6244 59.7851ZM119.326 61.721C115.287 61.721 111.681 60.7069 108.507 58.6789C105.391 56.6509 102.968 53.9161 101.237 50.4746C99.506 47.033 98.6405 43.315 98.6405 39.3204C98.6405 34.5268 99.7945 30.4093 102.103 26.9677C104.468 23.4648 107.44 20.8222 111.017 19.0399C114.652 17.2577 118.345 16.3666 122.095 16.3666C126.134 16.3666 129.683 17.4421 132.741 19.5931C135.857 21.6825 138.222 24.4173 139.838 27.7974C141.511 31.1775 142.348 34.7112 142.348 38.3985C142.348 42.516 141.309 46.3878 139.232 50.0136C137.155 53.5781 134.357 56.4358 130.837 58.5867C127.317 60.6762 123.48 61.721 119.326 61.721ZM121.576 59.7851C126.077 59.7851 129.654 58.0951 132.308 54.715C135.02 51.3349 136.376 46.6643 136.376 40.7031C136.376 36.5856 135.684 32.8368 134.299 29.4567C132.972 26.0766 131.01 23.3726 128.413 21.3445C125.817 19.3165 122.73 18.3025 119.153 18.3025C114.537 18.3025 110.959 19.9618 108.421 23.2804C105.882 26.5376 104.612 31.116 104.612 37.0158C104.612 41.2562 105.276 45.0972 106.603 48.5387C107.988 51.9802 109.95 54.715 112.488 56.7431C115.085 58.7711 118.114 59.7851 121.576 59.7851ZM169.191 60.9835C167.518 60.9835 165.7 60.8913 163.739 60.707C163.046 60.6455 162.181 60.584 161.142 60.5226C160.104 60.4611 158.921 60.4304 157.594 60.4304L152.487 60.5226C151.506 60.584 150.179 60.6148 148.506 60.6148C148.391 60.6148 148.333 60.4304 148.333 60.0617C148.333 59.6929 148.391 59.5086 148.506 59.5086C150.468 59.5086 151.881 59.3549 152.747 59.0476C153.67 58.7404 154.276 58.1565 154.564 57.2962C154.911 56.3743 155.084 54.9916 155.084 53.1479V24.9397C155.084 23.096 154.911 21.744 154.564 20.8836C154.276 20.0232 153.67 19.4394 152.747 19.1321C151.881 18.7634 150.497 18.579 148.593 18.579C148.477 18.579 148.419 18.3947 148.419 18.0259C148.419 17.6572 148.477 17.4728 148.593 17.4728L152.487 17.565C154.68 17.6879 156.382 17.7494 157.594 17.7494C159.382 17.7494 161.171 17.6572 162.96 17.4728C165.268 17.3499 166.999 17.2885 168.153 17.2885C172.999 17.2885 177.183 18.2103 180.702 20.054C184.222 21.8976 186.905 24.4481 188.751 27.7052C190.598 30.9624 191.521 34.6497 191.521 38.7673C191.521 43.0077 190.569 46.818 188.665 50.198C186.761 53.5781 184.106 56.2207 180.702 58.1258C177.356 60.0309 173.519 60.9835 169.191 60.9835ZM168.153 59.6929C173.519 59.6929 177.702 57.9722 180.702 54.5306C183.76 51.0891 185.289 46.1727 185.289 39.7813C185.289 33.6357 183.789 28.5656 180.789 24.571C177.846 20.5763 173.403 18.579 167.46 18.579C164.806 18.579 162.931 19.0399 161.834 19.9618C160.796 20.8836 160.277 22.6044 160.277 25.1241V52.1339C160.277 54.8994 160.796 56.866 161.834 58.0336C162.931 59.1398 165.037 59.6929 168.153 59.6929ZM210.072 53.1479C210.072 55.053 210.217 56.4358 210.505 57.2962C210.851 58.1565 211.457 58.7404 212.323 59.0476C213.188 59.3549 214.602 59.5086 216.564 59.5086C216.679 59.5086 216.737 59.6929 216.737 60.0617C216.737 60.4304 216.679 60.6148 216.564 60.6148C214.948 60.6148 213.679 60.584 212.755 60.5226L207.303 60.4304L202.196 60.5226C201.216 60.584 199.888 60.6148 198.215 60.6148C198.1 60.6148 198.042 60.4304 198.042 60.0617C198.042 59.6929 198.1 59.5086 198.215 59.5086C200.177 59.5086 201.591 59.3549 202.456 59.0476C203.322 58.7404 203.899 58.1565 204.187 57.2962C204.533 56.4358 204.706 55.053 204.706 53.1479V24.9397C204.706 23.096 204.533 21.744 204.187 20.8836C203.899 20.0232 203.293 19.4394 202.37 19.1321C201.504 18.7634 200.119 18.579 198.215 18.579C198.1 18.579 198.042 18.3947 198.042 18.0259C198.042 17.6572 198.1 17.4728 198.215 17.4728L202.196 17.565C204.274 17.6879 205.976 17.7494 207.303 17.7494C208.803 17.7494 210.649 17.6879 212.842 17.565L216.564 17.4728C216.679 17.4728 216.737 17.6572 216.737 18.0259C216.737 18.3947 216.679 18.579 216.564 18.579C214.717 18.579 213.332 18.7634 212.409 19.1321C211.486 19.5009 210.851 20.1462 210.505 21.068C210.217 21.9284 210.072 23.2804 210.072 25.1241V53.1479ZM255.681 48.3543C255.681 48.17 255.825 48.0778 256.114 48.0778C256.46 48.0778 256.633 48.17 256.633 48.3543C256.229 52.7792 256.027 56.405 256.027 59.232C256.027 59.7237 255.941 60.0924 255.768 60.3382C255.595 60.5226 255.248 60.6148 254.729 60.6148H223.052C222.937 60.6148 222.879 60.4304 222.879 60.0617C222.879 59.6929 222.937 59.5086 223.052 59.5086C224.956 59.5086 226.341 59.3549 227.206 59.0476C228.072 58.7404 228.649 58.1565 228.937 57.2962C229.284 56.3743 229.457 54.9916 229.457 53.1479V24.9397C229.457 23.096 229.284 21.744 228.937 20.8836C228.649 20.0232 228.072 19.4394 227.206 19.1321C226.341 18.7634 224.956 18.579 223.052 18.579C222.937 18.579 222.879 18.3947 222.879 18.0259C222.879 17.6572 222.937 17.4728 223.052 17.4728H253.171C253.748 17.4728 254.037 17.7187 254.037 18.2103L254.123 23.9257C254.181 25.0933 254.21 26.5683 254.21 28.3505C254.21 28.5349 254.037 28.627 253.69 28.627C253.344 28.627 253.171 28.5349 253.171 28.3505C252.94 25.5235 251.959 23.2189 250.228 21.4367C248.555 19.5931 246.478 18.6712 243.997 18.6712H241.574C239.554 18.6712 238.083 18.8556 237.16 19.2243C236.236 19.5316 235.602 20.1154 235.256 20.9758C234.909 21.8362 234.736 23.1882 234.736 25.0319V37.661C240.333 37.5996 244.141 37.4459 246.161 37.2001C248.238 36.8928 249.421 36.7392 249.709 36.7392C249.998 36.7392 250.142 37.3845 250.142 38.6751C250.142 40.0885 249.998 40.7953 249.709 40.7953C249.478 40.7953 248.324 40.6416 246.247 40.3344C244.17 39.9656 240.333 39.7198 234.736 39.5969V52.7792C234.736 54.5614 234.909 55.9134 235.256 56.8352C235.602 57.6956 236.236 58.3102 237.16 58.6789C238.14 58.9862 239.612 59.1398 241.574 59.1398H245.728C248.036 59.1398 250.113 58.1565 251.959 56.19C253.806 54.1619 255.046 51.55 255.681 48.3543ZM270.384 24.9397C270.384 26.7834 270.817 28.412 271.682 29.8254C272.605 31.1775 273.73 32.3144 275.057 33.2362C276.385 34.1581 278.144 35.2335 280.337 36.4627C282.703 37.8147 284.607 39.0131 286.049 40.0578C287.492 41.0411 288.703 42.3009 289.684 43.8373C290.665 45.3737 291.156 47.2174 291.156 49.3684C291.156 51.6422 290.55 53.7317 289.338 55.6369C288.184 57.4805 286.511 58.9555 284.318 60.0617C282.126 61.1679 279.558 61.721 276.615 61.721C272.403 61.721 268.913 60.6455 266.143 58.4945C265.854 58.3716 265.653 58.1873 265.537 57.9414C265.479 57.6956 265.422 57.2962 265.364 56.7431L264.499 47.6169C264.441 47.3711 264.556 47.2174 264.845 47.156C265.191 47.0945 265.422 47.1867 265.537 47.4325C266.345 50.9969 267.932 54.039 270.297 56.5587C272.721 59.0169 275.404 60.246 278.346 60.246C280.366 60.246 282.097 59.6315 283.539 58.4024C285.039 57.1118 285.79 55.1452 285.79 52.5026C285.79 49.6756 284.924 47.3711 283.193 45.5888C281.462 43.8066 278.952 41.9937 275.663 40.15C273.355 38.798 271.509 37.6303 270.124 36.647C268.797 35.6023 267.672 34.3424 266.749 32.8675C265.826 31.3926 265.364 29.6103 265.364 27.5208C265.364 24.0179 266.633 21.2831 269.172 19.3165C271.711 17.3499 274.798 16.3666 278.433 16.3666C281.491 16.3666 284.376 17.0734 287.088 18.4868C287.607 18.7941 287.924 19.0399 288.04 19.2243C288.213 19.3472 288.328 19.6238 288.386 20.054L288.992 28.0739C288.992 28.3198 288.819 28.4734 288.473 28.5349C288.184 28.5963 288.011 28.5041 287.953 28.2583C287.665 26.7219 287.001 25.1548 285.963 23.5569C284.982 21.8976 283.684 20.5149 282.068 19.4087C280.51 18.3025 278.779 17.7494 276.875 17.7494C274.798 17.7494 273.182 18.4254 272.028 19.7774C270.932 21.1294 270.384 22.8502 270.384 24.9397Z" fill="url(#paint0_linear_263_532)"/>
<path d="M146.059 71.9645C146.059 72.0148 146.02 72.0483 145.941 72.0651C145.862 72.0651 145.815 72.04 145.799 71.9897C145.752 71.1014 145.5 70.4142 145.044 69.9281C144.588 69.4253 143.982 69.1739 143.227 69.1739H141.787C141.252 69.1739 140.85 69.2158 140.583 69.2996C140.315 69.3834 140.127 69.5343 140.016 69.7521C139.922 69.97 139.875 70.2885 139.875 70.7075V76.2134H142.259C143.093 76.2134 143.683 76.0793 144.029 75.8111C144.391 75.5262 144.572 75.0736 144.572 74.4535C144.572 74.42 144.619 74.4032 144.714 74.4032C144.808 74.4032 144.855 74.42 144.855 74.4535L144.832 76.4899C144.832 76.976 144.84 77.3447 144.855 77.5961L144.879 78.8029C144.879 78.8364 144.832 78.8532 144.737 78.8532C144.643 78.8532 144.596 78.8364 144.596 78.8029C144.596 78.0654 144.407 77.5375 144.029 77.219C143.667 76.9006 143.054 76.7413 142.188 76.7413H139.875V82.2221C139.875 82.7584 139.938 83.1523 140.064 83.4037C140.205 83.6383 140.473 83.806 140.866 83.9065C141.26 84.0071 141.881 84.0574 142.731 84.0574C142.778 84.0574 142.802 84.1076 142.802 84.2082C142.802 84.3088 142.778 84.3591 142.731 84.3591C142.086 84.3591 141.582 84.3507 141.22 84.3339L139.096 84.3088L137.491 84.3339C137.208 84.3507 136.806 84.3591 136.287 84.3591C136.255 84.3591 136.24 84.3088 136.24 84.2082C136.24 84.1076 136.255 84.0574 136.287 84.0574C136.885 84.0574 137.326 84.0155 137.609 83.9317C137.892 83.8479 138.081 83.6886 138.175 83.454C138.285 83.2026 138.341 82.8255 138.341 82.3226V70.6824C138.341 70.1795 138.285 69.8108 138.175 69.5762C138.081 69.3415 137.892 69.1823 137.609 69.0985C137.341 68.9979 136.909 68.9476 136.311 68.9476C136.279 68.9476 136.263 68.8974 136.263 68.7968C136.263 68.6962 136.279 68.6459 136.311 68.6459H145.799C145.941 68.6459 146.012 68.7214 146.012 68.8722L146.059 71.9645ZM152.228 84.6859C151.315 84.6859 150.505 84.4512 149.796 83.9819C149.104 83.4959 148.569 82.8506 148.191 82.0461C147.814 81.2248 147.625 80.3365 147.625 79.3811C147.625 78.2917 147.869 77.3699 148.357 76.6156C148.86 75.8446 149.497 75.2748 150.269 74.906C151.055 74.5206 151.85 74.3278 152.653 74.3278C153.581 74.3278 154.391 74.5708 155.084 75.0569C155.776 75.5429 156.303 76.1882 156.665 76.9927C157.043 77.7805 157.232 78.6185 157.232 79.5068C157.232 80.546 157.004 81.4595 156.547 82.2472C156.091 83.0182 155.477 83.6216 154.706 84.0574C153.951 84.4764 153.125 84.6859 152.228 84.6859ZM152.912 84.2082C153.778 84.2082 154.446 83.8814 154.919 83.2277C155.391 82.574 155.627 81.5684 155.627 80.2108C155.627 79.1716 155.461 78.2414 155.131 77.4201C154.816 76.5989 154.376 75.962 153.809 75.5094C153.243 75.0401 152.597 74.8055 151.874 74.8055C151.024 74.8055 150.363 75.1323 149.891 75.786C149.435 76.4396 149.206 77.3782 149.206 78.6018C149.206 79.6242 149.364 80.5628 149.678 81.4176C149.993 82.2723 150.434 82.9512 151 83.454C151.567 83.9568 152.204 84.2082 152.912 84.2082ZM163.522 84.6859C162.61 84.6859 161.799 84.4512 161.091 83.9819C160.399 83.4959 159.864 82.8506 159.486 82.0461C159.108 81.2248 158.919 80.3365 158.919 79.3811C158.919 78.2917 159.163 77.3699 159.651 76.6156C160.155 75.8446 160.792 75.2748 161.563 74.906C162.35 74.5206 163.145 74.3278 163.947 74.3278C164.876 74.3278 165.686 74.5708 166.378 75.0569C167.071 75.5429 167.598 76.1882 167.96 76.9927C168.338 77.7805 168.526 78.6185 168.526 79.5068C168.526 80.546 168.298 81.4595 167.842 82.2472C167.386 83.0182 166.772 83.6216 166.001 84.0574C165.245 84.4764 164.419 84.6859 163.522 84.6859ZM164.207 84.2082C165.072 84.2082 165.741 83.8814 166.213 83.2277C166.685 82.574 166.921 81.5684 166.921 80.2108C166.921 79.1716 166.756 78.2414 166.426 77.4201C166.111 76.5989 165.67 75.962 165.104 75.5094C164.537 75.0401 163.892 74.8055 163.168 74.8055C162.319 74.8055 161.658 75.1323 161.186 75.786C160.729 76.4396 160.501 77.3782 160.501 78.6018C160.501 79.6242 160.658 80.5628 160.973 81.4176C161.288 82.2723 161.728 82.9512 162.295 83.454C162.861 83.9568 163.499 84.2082 164.207 84.2082ZM181.308 82.926C181.371 82.926 181.41 82.9679 181.426 83.0517C181.458 83.1355 181.45 83.1942 181.403 83.2277L178.806 84.535C178.712 84.5686 178.649 84.5853 178.617 84.5853C178.413 84.5853 178.24 84.401 178.098 84.0322C177.956 83.6635 177.878 83.1523 177.862 82.4986C177.28 83.1523 176.666 83.6803 176.021 84.0825C175.391 84.4848 174.683 84.6859 173.896 84.6859C173.235 84.6859 172.622 84.4848 172.055 84.0825C171.504 83.6803 171.056 83.1188 170.71 82.3981C170.379 81.6606 170.214 80.8226 170.214 79.884C170.214 78.6939 170.49 77.6799 171.04 76.8419C171.591 76.0039 172.283 75.3753 173.117 74.9563C173.951 74.5373 174.778 74.3278 175.596 74.3278C176.43 74.3278 177.185 74.5457 177.862 74.9815V69.3499C177.862 68.7465 177.799 68.3107 177.673 68.0426C177.563 67.7744 177.366 67.6403 177.083 67.6403C176.878 67.6403 176.516 67.7576 175.997 67.9923H175.95C175.887 67.9923 175.84 67.9588 175.808 67.8917C175.793 67.8079 175.808 67.7492 175.856 67.7157L178.853 66.157C178.885 66.1402 178.924 66.1318 178.971 66.1318C179.003 66.1318 179.042 66.157 179.089 66.2073C179.152 66.2408 179.184 66.2827 179.184 66.333V81.5935C179.184 82.1969 179.247 82.6327 179.373 82.9009C179.514 83.169 179.735 83.3031 180.034 83.3031C180.49 83.3031 180.899 83.1858 181.261 82.9512L181.308 82.926ZM174.817 83.7808C175.383 83.7808 175.911 83.6383 176.398 83.3534C176.886 83.0517 177.374 82.6327 177.862 82.0964V76.5653C177.484 76.0122 177.067 75.5848 176.611 75.2832C176.155 74.9815 175.604 74.8306 174.959 74.8306C173.967 74.8306 173.18 75.2077 172.598 75.962C172.032 76.6994 171.748 77.7554 171.748 79.1297C171.748 80.0516 171.882 80.8645 172.15 81.5684C172.417 82.2724 172.779 82.8171 173.235 83.2026C173.708 83.5881 174.235 83.7808 174.817 83.7808ZM203.428 84.0574C203.491 84.0741 203.514 84.1328 203.499 84.2334C203.499 84.3172 203.475 84.3591 203.428 84.3591H200.879C200.171 84.3591 199.093 83.7557 197.645 82.5489C196.37 83.9568 194.781 84.6608 192.877 84.6608C191.901 84.6608 191.083 84.4848 190.422 84.1328C189.777 83.7808 189.289 83.3199 188.959 82.75C188.644 82.1802 188.486 81.5684 188.486 80.9147C188.486 79.9594 188.762 79.1297 189.313 78.4258C189.879 77.7051 190.69 76.9341 191.744 76.1128C191.461 75.6603 191.232 75.2413 191.059 74.8558C190.603 73.7831 190.375 72.8696 190.375 72.1154C190.375 71.3947 190.54 70.7326 190.87 70.1293C191.201 69.5091 191.665 69.0231 192.263 68.6711C192.861 68.3023 193.538 68.118 194.293 68.118C195.048 68.118 195.694 68.3107 196.229 68.6962C196.779 69.0817 197.055 69.7186 197.055 70.6069C197.055 71.2606 196.897 71.8556 196.583 72.3919C196.268 72.9283 195.875 73.3976 195.402 73.7998C194.946 74.2021 194.332 74.6714 193.561 75.2077C193.53 75.2245 193.396 75.3167 193.16 75.4843C194.262 77.395 195.938 79.2638 198.188 81.0907C198.739 80.0683 199.014 78.937 199.014 77.6967C199.014 77.0933 198.896 76.6408 198.66 76.3391C198.44 76.0374 197.999 75.8865 197.338 75.8865C197.291 75.8865 197.259 75.8363 197.244 75.7357C197.244 75.6351 197.275 75.5849 197.338 75.5849L202.271 75.5597C202.334 75.5597 202.366 75.61 202.366 75.7106C202.366 75.8111 202.334 75.8614 202.271 75.8614C201.736 75.8614 201.335 75.9201 201.068 76.0374C200.8 76.138 200.611 76.2804 200.501 76.4648C200.391 76.6492 200.281 76.9425 200.171 77.3447C199.714 79.004 199.171 80.3449 198.542 81.3673C199.47 82.088 200.367 82.683 201.233 83.1523C202.098 83.6216 202.83 83.9233 203.428 84.0574ZM191.744 71.0595C191.744 72.35 192.153 73.7244 192.971 75.1826C193.837 74.4954 194.498 73.8334 194.954 73.1965C195.426 72.5428 195.662 71.8137 195.662 71.0092C195.662 70.2717 195.473 69.6935 195.096 69.2745C194.734 68.8554 194.238 68.6459 193.609 68.6459C192.365 68.6459 191.744 69.4504 191.744 71.0595ZM193.939 83.9065C194.6 83.9065 195.222 83.7641 195.804 83.4791C196.386 83.1942 196.905 82.8003 197.362 82.2975C197.267 82.2305 197.126 82.1131 196.937 81.9455C195.993 81.1745 195.08 80.303 194.199 79.3309C193.317 78.3587 192.57 77.3866 191.956 76.4145C191.343 76.9508 190.863 77.5123 190.516 78.0989C190.17 78.6688 189.997 79.3141 189.997 80.0348C189.997 80.7388 190.162 81.3924 190.493 81.9958C190.839 82.5824 191.311 83.0517 191.909 83.4037C192.523 83.7389 193.199 83.9065 193.939 83.9065ZM216.804 75.5094C218.047 75.61 219.046 76.0541 219.801 76.8419C220.573 77.6129 220.958 78.5766 220.958 79.7331C220.958 80.6214 220.753 81.4259 220.344 82.1466C219.935 82.8674 219.369 83.4372 218.645 83.8562C217.937 84.2585 217.142 84.4596 216.261 84.4596C215.742 84.4596 215.175 84.4345 214.561 84.3842C214.341 84.3674 214.081 84.3507 213.782 84.3339C213.483 84.3172 213.153 84.3088 212.791 84.3088L211.186 84.3339C210.903 84.3507 210.501 84.3591 209.982 84.3591C209.951 84.3591 209.935 84.3088 209.935 84.2082C209.935 84.1076 209.951 84.0574 209.982 84.0574C210.58 84.0574 211.021 84.0155 211.304 83.9317C211.587 83.8311 211.784 83.6635 211.894 83.4288C212.004 83.1942 212.059 82.8255 212.059 82.3226V70.6824C212.059 70.1795 212.004 69.8108 211.894 69.5762C211.8 69.3415 211.611 69.1823 211.327 69.0985C211.044 68.9979 210.612 68.9476 210.029 68.9476C209.982 68.9476 209.958 68.8974 209.958 68.7968C209.958 68.6962 209.982 68.6459 210.029 68.6459L211.186 68.6711C211.847 68.7046 212.382 68.7214 212.791 68.7214C213.074 68.7214 213.334 68.713 213.57 68.6962C213.822 68.6795 214.034 68.6627 214.207 68.6459C214.695 68.5957 215.151 68.5705 215.576 68.5705C216.898 68.5705 217.889 68.8806 218.55 69.5007C219.211 70.1041 219.542 70.9002 219.542 71.8891C219.542 72.6936 219.298 73.4143 218.81 74.0513C218.322 74.6714 217.653 75.1575 216.804 75.5094ZM215.057 68.9476C214.648 68.9476 214.341 68.9812 214.136 69.0482C213.948 69.1152 213.806 69.2745 213.712 69.5259C213.617 69.7773 213.57 70.1795 213.57 70.7326V75.5094L214.632 75.5346C215.781 75.5346 216.631 75.2245 217.181 74.6044C217.732 73.9674 218.008 73.1294 218.008 72.0903C218.008 71.1517 217.764 70.3974 217.276 69.8276C216.804 69.2409 216.064 68.9476 215.057 68.9476ZM215.907 84.0071C217.055 84.0071 217.905 83.697 218.456 83.0769C219.022 82.44 219.306 81.5349 219.306 80.3616C219.306 79.0878 218.952 78.0571 218.244 77.2693C217.551 76.4816 216.591 76.0793 215.364 76.0625C214.86 76.0458 214.262 76.0625 213.57 76.1128V82.3226C213.57 82.7584 213.625 83.0936 213.735 83.3283C213.861 83.5629 214.089 83.7389 214.42 83.8562C214.766 83.9568 215.262 84.0071 215.907 84.0071ZM230.721 82.9512C230.768 82.9512 230.808 82.9847 230.839 83.0517C230.886 83.102 230.894 83.1523 230.863 83.2026C229.793 84.1747 228.644 84.6608 227.416 84.6608C226.488 84.6608 225.685 84.4345 225.009 83.9819C224.332 83.5294 223.821 82.9428 223.475 82.2221C223.144 81.4846 222.979 80.6885 222.979 79.8337C222.979 78.828 223.199 77.9146 223.64 77.0933C224.096 76.272 224.71 75.6268 225.481 75.1575C226.252 74.6714 227.11 74.4284 228.054 74.4284C228.903 74.4284 229.564 74.6546 230.036 75.1072C230.509 75.5429 230.745 76.1463 230.745 76.9173C230.745 77.1184 230.721 77.2693 230.674 77.3699C230.642 77.4537 230.572 77.4956 230.461 77.4956L224.655 77.5458C224.576 77.9984 224.537 78.4342 224.537 78.8532C224.537 80.3114 224.867 81.5014 225.528 82.4232C226.189 83.3283 227.102 83.7808 228.266 83.7808C229.163 83.7808 229.974 83.5043 230.697 82.9512H230.721ZM227.251 74.9312C226.606 74.9312 226.063 75.1323 225.622 75.5346C225.198 75.9201 224.899 76.4732 224.726 77.1939L229.116 77.0933C229.116 76.4061 228.943 75.8782 228.597 75.5094C228.266 75.1239 227.818 74.9312 227.251 74.9312ZM241.937 74.6546C241.968 74.6546 241.984 74.7049 241.984 74.8055C241.984 74.906 241.968 74.9563 241.937 74.9563C241.528 74.9563 241.182 75.0904 240.898 75.3586C240.631 75.6268 240.371 76.1044 240.119 76.7916L237.169 84.3339C237.137 84.4177 237.051 84.4596 236.909 84.4596C236.768 84.4596 236.681 84.4177 236.65 84.3339L233.345 76.7413C233.03 76.0206 232.763 75.5429 232.542 75.3083C232.338 75.0736 232.078 74.9563 231.764 74.9563C231.716 74.9563 231.693 74.906 231.693 74.8055C231.693 74.7049 231.716 74.6546 231.764 74.6546C232.078 74.6546 232.322 74.663 232.495 74.6798L233.392 74.7049L234.927 74.6798C235.163 74.663 235.477 74.6546 235.871 74.6546C235.918 74.6546 235.941 74.7049 235.941 74.8055C235.941 74.906 235.918 74.9563 235.871 74.9563C234.927 74.9563 234.454 75.1574 234.454 75.5597C234.454 75.677 234.486 75.8027 234.549 75.9368L237.429 82.4232L239.647 76.6659C239.758 76.3475 239.813 76.1044 239.813 75.9368C239.813 75.6016 239.663 75.3586 239.364 75.2077C239.065 75.0401 238.593 74.9563 237.948 74.9563C237.916 74.9563 237.901 74.906 237.901 74.8055C237.901 74.7049 237.916 74.6546 237.948 74.6546C238.373 74.6546 238.695 74.663 238.916 74.6798L240.332 74.7049L241.158 74.6798C241.315 74.663 241.575 74.6546 241.937 74.6546ZM250.591 82.9512C250.638 82.9512 250.677 82.9847 250.709 83.0517C250.756 83.102 250.764 83.1523 250.732 83.2026C249.662 84.1747 248.513 84.6608 247.286 84.6608C246.358 84.6608 245.555 84.4345 244.878 83.9819C244.202 83.5294 243.69 82.9428 243.344 82.2221C243.014 81.4846 242.848 80.6885 242.848 79.8337C242.848 78.828 243.069 77.9146 243.509 77.0933C243.966 76.272 244.579 75.6268 245.35 75.1575C246.121 74.6714 246.979 74.4284 247.923 74.4284C248.773 74.4284 249.434 74.6546 249.906 75.1072C250.378 75.5429 250.614 76.1463 250.614 76.9173C250.614 77.1184 250.591 77.2693 250.543 77.3699C250.512 77.4537 250.441 77.4956 250.331 77.4956L244.524 77.5458C244.446 77.9984 244.406 78.4342 244.406 78.8532C244.406 80.3114 244.737 81.5014 245.398 82.4232C246.059 83.3283 246.971 83.7808 248.136 83.7808C249.033 83.7808 249.843 83.5043 250.567 82.9512H250.591ZM247.121 74.9312C246.476 74.9312 245.933 75.1323 245.492 75.5346C245.067 75.9201 244.768 76.4732 244.595 77.1939L248.985 77.0933C248.985 76.4061 248.812 75.8782 248.466 75.5094C248.136 75.1239 247.687 74.9312 247.121 74.9312ZM258.126 74.4284C258.472 74.4284 258.802 74.5289 259.117 74.7301C259.432 74.9312 259.589 75.1742 259.589 75.4591C259.589 75.677 259.518 75.8614 259.377 76.0122C259.251 76.1631 259.062 76.2385 258.81 76.2385C258.668 76.2385 258.543 76.2134 258.432 76.1631C258.338 76.0961 258.22 76.0039 258.078 75.8865C257.937 75.7525 257.803 75.6519 257.677 75.5849C257.551 75.5178 257.402 75.4843 257.229 75.4843C257.024 75.4843 256.804 75.5765 256.568 75.7608C256.347 75.9284 255.993 76.3139 255.505 76.9173V82.3226C255.505 82.8255 255.561 83.1942 255.671 83.4288C255.797 83.6635 256.017 83.8311 256.332 83.9317C256.646 84.0155 257.134 84.0574 257.795 84.0574C257.858 84.0574 257.89 84.1076 257.89 84.2082C257.89 84.3088 257.858 84.3591 257.795 84.3591C257.292 84.3591 256.89 84.3507 256.591 84.3339L254.845 84.3088L253.546 84.3339C253.342 84.3507 253.059 84.3591 252.697 84.3591C252.649 84.3591 252.626 84.3088 252.626 84.2082C252.626 84.1076 252.649 84.0574 252.697 84.0574C253.121 84.0574 253.436 84.0155 253.641 83.9317C253.845 83.8311 253.979 83.6635 254.042 83.4288C254.121 83.1942 254.16 82.8255 254.16 82.3226V77.3447C254.16 76.7749 254.097 76.3642 253.971 76.1128C253.845 75.8614 253.633 75.7357 253.334 75.7357C253.082 75.7357 252.657 75.8614 252.059 76.1128H252.012C251.949 76.1128 251.902 76.0793 251.87 76.0122C251.855 75.9284 251.878 75.8698 251.941 75.8363L254.679 74.4535C254.711 74.4367 254.758 74.4284 254.821 74.4284C254.963 74.4284 255.112 74.6211 255.269 75.0066C255.427 75.3921 255.505 75.8865 255.505 76.4899V76.5151C256.151 75.7106 256.662 75.1658 257.04 74.8809C257.417 74.5792 257.779 74.4284 258.126 74.4284ZM269.659 83.0014C269.722 83.0014 269.761 83.0433 269.777 83.1271C269.793 83.1942 269.769 83.2445 269.706 83.278L267.275 84.5099C267.212 84.5434 267.149 84.5602 267.086 84.5602C266.881 84.5602 266.7 84.4177 266.543 84.1328C266.386 83.8479 266.283 83.454 266.236 82.9512L264.773 83.7808C264.285 84.049 263.884 84.2417 263.569 84.3591C263.254 84.4764 262.947 84.535 262.648 84.535C262.161 84.535 261.783 84.401 261.515 84.1328C261.264 83.8479 261.138 83.4959 261.138 83.0769C261.138 82.6243 261.295 82.264 261.61 81.9958C261.94 81.7109 262.523 81.4176 263.357 81.1159L266.213 80.0348V77.9481C266.213 76.8419 266.079 76.0709 265.811 75.6351C265.544 75.1826 265.174 74.9563 264.702 74.9563C264.167 74.9563 263.75 75.1574 263.451 75.5597C263.152 75.962 262.971 76.448 262.908 77.0179C262.845 77.6548 262.554 77.9732 262.035 77.9732C261.783 77.9732 261.586 77.9062 261.445 77.7721C261.303 77.638 261.232 77.4537 261.232 77.219C261.232 76.8335 261.468 76.4229 261.94 75.9871C262.412 75.5513 262.979 75.1826 263.64 74.8809C264.316 74.5792 264.922 74.4284 265.457 74.4284C266.087 74.4284 266.59 74.663 266.968 75.1323C267.346 75.5848 267.534 76.272 267.534 77.1939V81.6438C267.534 82.2304 267.605 82.6578 267.747 82.926C267.889 83.1942 268.125 83.3283 268.455 83.3283C268.754 83.3283 269.14 83.2193 269.612 83.0014H269.659ZM266.213 82.5992V82.4483V80.3365L263.781 81.317C263.419 81.4678 263.16 81.6354 263.002 81.8198C262.861 82.0042 262.79 82.2388 262.79 82.5238C262.79 82.8757 262.884 83.1523 263.073 83.3534C263.262 83.5378 263.506 83.63 263.805 83.63C264.104 83.63 264.427 83.5462 264.773 83.3786L266.213 82.5992ZM275.464 83.63C276.408 83.7808 277.156 83.94 277.707 84.1076C278.257 84.2585 278.729 84.5267 279.123 84.9122C279.516 85.3144 279.713 85.8675 279.713 86.5715C279.713 87.3257 279.445 88.0799 278.91 88.8342C278.375 89.6051 277.652 90.2337 276.739 90.7197C275.842 91.2058 274.874 91.4488 273.836 91.4488C272.718 91.4488 271.813 91.1639 271.121 90.594C270.444 90.0242 270.106 89.2951 270.106 88.4068C270.106 87.0827 271.003 85.7837 272.797 84.5099C271.727 84.1747 271.192 83.6048 271.192 82.8003C271.192 82.331 271.341 81.8785 271.64 81.4427C271.955 80.9902 272.372 80.5795 272.891 80.2108C272.278 79.9761 271.806 79.6158 271.475 79.1297C271.145 78.6269 270.979 78.0654 270.979 77.4453C270.979 76.5737 271.326 75.8614 272.018 75.3083C272.71 74.7552 273.584 74.4787 274.638 74.4787C275.677 74.4787 276.479 74.7384 277.046 75.258C277.88 74.7217 278.722 74.4535 279.571 74.4535C279.619 74.4535 279.65 74.5122 279.666 74.6295C279.697 74.7468 279.713 74.8725 279.713 75.0066C279.713 75.2077 279.689 75.4089 279.642 75.61C279.595 75.8111 279.54 75.8949 279.477 75.8614C279.43 75.8446 279.257 75.7776 278.958 75.6603C278.674 75.543 278.328 75.4843 277.919 75.4843C277.746 75.4843 277.549 75.501 277.329 75.5346C277.738 76.0374 277.943 76.6324 277.943 77.3196C277.943 77.8894 277.793 78.4174 277.494 78.9035C277.195 79.3728 276.778 79.7499 276.243 80.0348C275.708 80.3197 275.087 80.4622 274.378 80.4622C273.922 80.4622 273.521 80.4119 273.175 80.3114C272.907 80.5125 272.695 80.7555 272.537 81.0404C272.38 81.3086 272.301 81.6019 272.301 81.9204C272.301 82.44 272.522 82.8087 272.962 83.0266C273.419 83.2277 274.095 83.4037 274.992 83.5545L275.464 83.63ZM274.048 74.8558C273.576 74.8558 273.19 75.0234 272.891 75.3586C272.608 75.6938 272.466 76.2134 272.466 76.9173C272.466 77.8894 272.702 78.6688 273.175 79.2554C273.662 79.8253 274.229 80.1102 274.874 80.1102C275.346 80.1102 275.732 79.9259 276.031 79.5571C276.33 79.1716 276.479 78.5934 276.479 77.8224C276.479 76.9508 276.235 76.2385 275.747 75.6854C275.275 75.1323 274.709 74.8558 274.048 74.8558ZM274.78 90.6946C275.551 90.6946 276.212 90.5437 276.762 90.242C277.329 89.9403 277.754 89.5381 278.037 89.0353C278.336 88.5492 278.486 88.0213 278.486 87.4514C278.486 86.7977 278.289 86.2949 277.895 85.9429C277.502 85.591 277.038 85.3479 276.503 85.2138C275.983 85.0798 275.244 84.9457 274.284 84.8116C273.796 84.7445 273.458 84.6859 273.269 84.6356C272.702 85.0211 272.262 85.4401 271.947 85.8927C271.648 86.3452 271.499 86.9151 271.499 87.6022C271.499 88.5408 271.79 89.2867 272.372 89.8398C272.97 90.4097 273.773 90.6946 274.78 90.6946ZM288.279 82.9512C288.326 82.9512 288.365 82.9847 288.397 83.0517C288.444 83.102 288.452 83.1523 288.42 83.2026C287.35 84.1747 286.202 84.6608 284.974 84.6608C284.046 84.6608 283.243 84.4345 282.566 83.9819C281.89 83.5294 281.378 82.9428 281.032 82.2221C280.702 81.4846 280.536 80.6885 280.536 79.8337C280.536 78.828 280.757 77.9146 281.197 77.0933C281.654 76.272 282.267 75.6268 283.039 75.1575C283.81 74.6714 284.667 74.4284 285.611 74.4284C286.461 74.4284 287.122 74.6546 287.594 75.1072C288.066 75.5429 288.302 76.1463 288.302 76.9173C288.302 77.1184 288.279 77.2693 288.231 77.3699C288.2 77.4537 288.129 77.4956 288.019 77.4956L282.212 77.5458C282.134 77.9984 282.094 78.4342 282.094 78.8532C282.094 80.3114 282.425 81.5014 283.086 82.4232C283.747 83.3283 284.659 83.7808 285.824 83.7808C286.721 83.7808 287.531 83.5043 288.255 82.9512H288.279ZM284.809 74.9312C284.164 74.9312 283.621 75.1323 283.18 75.5346C282.755 75.9201 282.456 76.4732 282.283 77.1939L286.674 77.0933C286.674 76.4061 286.501 75.8782 286.154 75.5094C285.824 75.1239 285.375 74.9312 284.809 74.9312Z" fill="white"/>
</g>
<defs>
<filter id="filter0_d_263_532" x="0" y="0" width="296.156" height="98.4489" filterUnits="userSpaceOnUse" color-interpolation-filters="sRGB">
<feFlood flood-opacity="0" result="BackgroundImageFix"/>
<feColorMatrix in="SourceAlpha" type="matrix" values="0 0 0 0 0 0 0 0 0 0 0 0 0 0 0 0 0 0 127 0" result="hardAlpha"/>
<feOffset dy="2"/>
<feGaussianBlur stdDeviation="2.5"/>
<feComposite in2="hardAlpha" operator="out"/>
<feColorMatrix type="matrix" values="0 0 0 0 0 0 0 0 0 0 0 0 0 0 0 0 0 0 0.5 0"/>
<feBlend mode="normal" in2="BackgroundImageFix" result="effect1_dropShadow_263_532"/>
<feBlend mode="normal" in="SourceGraphic" in2="effect1_dropShadow_263_532" result="shape"/>
</filter>
<linearGradient id="paint0_linear_263_532" x1="148.409" y1="-24.5853" x2="148.409" y2="78.7721" gradientUnits="userSpaceOnUse">
<stop stop-color="#5E5E5E"/>
<stop offset="0.651042" stop-color="white"/>
<stop offset="1" stop-color="#656565"/>
</linearGradient>
</defs>
</svg>
