<svg width="1382" height="446" viewBox="0 0 1382 446" fill="none" xmlns="http://www.w3.org/2000/svg">
<g filter="url(#filter0_d_1179_360)">
<path d="M5 199.116C5 199.116 175.415 68.8082 364.5 68.8082C553.585 68.8082 882.887 174.5 1059 169.199C1235.11 163.898 1371 15 1371 15V444.5H1207.25H1043.5H585.5H295.25H150.125H5V199.116Z" fill="#202020"/>
<path d="M5 199.116C5 199.116 175.415 68.8082 364.5 68.8082C553.585 68.8082 882.887 174.5 1059 169.199C1235.11 163.898 1371 15 1371 15V444.5H1207.25H1043.5H585.5H295.25H150.125H5V199.116Z" stroke="black"/>
</g>
<defs>
<filter id="filter0_d_1179_360" x="0.5" y="0.709961" width="1381" height="445.29" filterUnits="userSpaceOnUse" color-interpolation-filters="sRGB">
<feFlood flood-opacity="0" result="BackgroundImageFix"/>
<feColorMatrix in="SourceAlpha" type="matrix" values="0 0 0 0 0 0 0 0 0 0 0 0 0 0 0 0 0 0 127 0" result="hardAlpha"/>
<feOffset dx="3" dy="-6"/>
<feGaussianBlur stdDeviation="3.5"/>
<feComposite in2="hardAlpha" operator="out"/>
<feColorMatrix type="matrix" values="0 0 0 0 0 0 0 0 0 0 0 0 0 0 0 0 0 0 0.25 0"/>
<feBlend mode="normal" in2="BackgroundImageFix" result="effect1_dropShadow_1179_360"/>
<feBlend mode="normal" in="SourceGraphic" in2="effect1_dropShadow_1179_360" result="shape"/>
</filter>
</defs>
</svg>
