<svg width="68" height="68" viewBox="0 0 68 68" fill="none" xmlns="http://www.w3.org/2000/svg">
<path d="M65.1667 62.3329H62.3333V39.6645C62.3288 35.9084 60.8348 32.3074 58.179 29.6514C55.5233 26.9954 51.9225 25.5013 48.1667 25.4968H36.8333V17.1067C38.0955 16.5558 39.1697 15.6489 39.9246 14.4969C40.6794 13.345 41.0821 11.9979 41.0833 10.6207C40.3179 6.99879 38.5938 3.64899 36.091 0.921467C35.8255 0.631112 35.5025 0.399227 35.1425 0.24058C34.7825 0.0819326 34.3934 0 34 0C33.6066 0 33.2175 0.0819326 32.8575 0.24058C32.4975 0.399227 32.1745 0.631112 31.909 0.921467C29.4062 3.64899 27.6821 6.99879 26.9167 10.6207C26.9179 11.9979 27.3206 13.345 28.0754 14.4969C28.8303 15.6489 29.9045 16.5558 31.1667 17.1067V25.4968H19.8333C16.0775 25.5013 12.4767 26.9954 9.82096 29.6514C7.16517 32.3074 5.67117 35.9084 5.66667 39.6645V62.3329H2.83333C2.08189 62.3329 1.36122 62.6314 0.829864 63.1628C0.298511 63.6942 0 64.415 0 65.1665C0 65.918 0.298511 66.6387 0.829864 67.1701C1.36122 67.7015 2.08189 68 2.83333 68H65.1667C65.9181 68 66.6388 67.7015 67.1701 67.1701C67.7015 66.6387 68 65.918 68 65.1665C68 64.415 67.7015 63.6942 67.1701 63.1628C66.6388 62.6314 65.9181 62.3329 65.1667 62.3329ZM19.8333 31.1639H48.1667C50.421 31.1639 52.583 32.0595 54.1771 33.6537C55.7711 35.2479 56.6667 37.41 56.6667 39.6645V45.275C54.0147 44.9916 52.4167 43.2915 52.4167 42.4981C52.4167 41.7466 52.1182 41.0259 51.5868 40.4945C51.0555 39.9631 50.3348 39.6645 49.5833 39.6645C48.8319 39.6645 48.1112 39.9631 47.5799 40.4945C47.0485 41.0259 46.75 41.7466 46.75 42.4981C46.75 43.47 44.8177 45.3316 41.7917 45.3316C38.7062 45.3316 36.8333 43.3652 36.8333 42.4981C36.8333 41.7466 36.5348 41.0259 36.0035 40.4945C35.4721 39.9631 34.7514 39.6645 34 39.6645C33.2486 39.6645 32.5279 39.9631 31.9965 40.4945C31.4652 41.0259 31.1667 41.7466 31.1667 42.4981C31.1667 43.47 29.2343 45.3316 26.2083 45.3316C23.1228 45.3316 21.25 43.3652 21.25 42.4981C21.25 41.7466 20.9515 41.0259 20.4201 40.4945C19.8888 39.9631 19.1681 39.6645 18.4167 39.6645C17.6652 39.6645 16.9446 39.9631 16.4132 40.4945C15.8818 41.0259 15.5833 41.7466 15.5833 42.4981C15.5833 43.3907 13.9428 45.0143 11.3333 45.2778V39.6645C11.3333 37.41 12.2289 35.2479 13.8229 33.6537C15.417 32.0595 17.579 31.1639 19.8333 31.1639ZM11.3333 50.9392C13.9363 50.8237 16.4275 49.8481 18.4167 48.1652C20.6022 49.9871 23.3554 50.9885 26.2007 50.9963C29.0459 51.004 31.8046 50.0177 34 48.2077C36.1954 50.0177 38.9541 51.004 41.7993 50.9963C44.6446 50.9885 47.3978 49.9871 49.5833 48.1652C51.5729 49.8471 54.064 50.8217 56.6667 50.9364V62.3329H11.3333V50.9392Z" fill="#EBEBEB"/>
</svg>
