<svg width="54" height="55" viewBox="0 0 54 55" fill="none" xmlns="http://www.w3.org/2000/svg">
<path d="M52.6532 10.8533C50.9682 3.84908 41.5011 0.145582 35.702 3.91433C33.1938 1.57429 29.9162 0.276367 26.5153 0.276367C23.1145 0.276367 19.8369 1.57429 17.3287 3.91433C3.12689 -3.46342 -7.90595 17.6596 7.36026 24.3713C7.77323 24.4927 8.13868 24.7425 8.40553 25.0858C8.67239 25.4291 8.82732 25.8487 8.84868 26.2861V44.1421C8.84868 46.8274 9.89566 49.4027 11.7593 51.3015C13.6229 53.2003 16.1506 54.2671 18.7862 54.2671H34.2445C35.5495 54.2671 36.8418 54.0052 38.0474 53.4964C39.2531 52.9875 40.3486 52.2417 41.2714 51.3015C42.1942 50.3613 42.9262 49.2452 43.4256 48.0167C43.925 46.7883 44.182 45.4717 44.182 44.1421V26.2861C44.2034 25.8487 44.3583 25.4291 44.6252 25.0858C44.892 24.7425 45.2575 24.4927 45.6704 24.3713C48.2852 23.4195 50.4538 21.502 51.7469 18.9986C53.0401 16.4951 53.3635 13.5882 52.6532 10.8533ZM39.7654 44.1421C39.7654 45.6339 39.1837 47.0647 38.1483 48.1196C37.113 49.1744 35.7087 49.7671 34.2445 49.7671H18.7862C17.969 49.7494 17.165 49.5534 16.4285 49.1921C15.6921 48.8309 15.0402 48.313 14.5169 47.6732C13.9936 47.0334 13.6111 46.2867 13.3952 45.4835C13.1793 44.6803 13.135 43.8392 13.2653 43.0171H39.7654V44.1421ZM44.182 20.1301C42.9074 20.5583 41.7962 21.3821 41.0042 22.486C40.2122 23.5899 39.779 24.9187 39.7654 26.2861V38.5171H13.2653V26.2861C13.2517 24.9187 12.8185 23.5899 12.0265 22.486C11.2345 21.3821 10.1233 20.5583 8.84868 20.1301C7.27279 19.5524 5.96716 18.3929 5.19016 16.8813C4.41316 15.3696 4.22141 13.6159 4.65284 11.9671C5.94693 7.24208 12.8877 5.26433 16.0986 8.59208C16.329 8.8282 16.6076 9.00964 16.9147 9.12348C17.2217 9.23731 17.5496 9.28073 17.875 9.25065C18.2005 9.22057 18.5153 9.11772 18.7973 8.94944C19.0792 8.78116 19.3212 8.55158 19.5061 8.27708C22.2599 3.59708 30.7576 3.59708 33.5114 8.27708C33.6965 8.55125 33.9386 8.78051 34.2205 8.94856C34.5024 9.1166 34.8172 9.21931 35.1425 9.24938C35.4678 9.27945 35.7956 9.23615 36.1026 9.12254C36.4096 9.00894 36.6883 8.82783 36.9188 8.59208C37.7893 7.83678 38.8283 7.31037 39.9447 7.05894C41.0612 6.80751 42.2211 6.83872 43.323 7.14983C44.7266 7.46687 45.9918 8.23863 46.9289 9.34954C47.8661 10.4605 48.4248 11.8508 48.5215 13.3123C48.6183 14.7739 48.2478 16.228 47.4655 17.4571C46.6832 18.6861 45.5312 19.6239 44.182 20.1301Z" fill="#EBEBEB"/>
</svg>
