<svg width="31" height="31" viewBox="0 0 31 31" fill="none" xmlns="http://www.w3.org/2000/svg">
<path d="M5.90956 5.90956C6.27289 5.54633 6.76562 5.34229 7.27937 5.34229C7.79313 5.34229 8.28585 5.54633 8.64918 5.90956L15.5002 12.7606L22.3512 5.90956C22.7166 5.55663 23.206 5.36134 23.714 5.36575C24.222 5.37017 24.708 5.57393 25.0672 5.93316C25.4264 6.29239 25.6302 6.77834 25.6346 7.28634C25.639 7.79435 25.4437 8.28377 25.0908 8.64918L18.2398 15.5002L25.0908 22.3512C25.4437 22.7166 25.639 23.206 25.6346 23.714C25.6302 24.222 25.4264 24.708 25.0672 25.0672C24.708 25.4264 24.222 25.6302 23.714 25.6346C23.206 25.639 22.7166 25.4437 22.3512 25.0908L15.5002 18.2398L8.64918 25.0908C8.28377 25.4437 7.79435 25.639 7.28634 25.6346C6.77834 25.6302 6.29239 25.4264 5.93316 25.0672C5.57393 24.708 5.37017 24.222 5.36575 23.714C5.36134 23.206 5.55663 22.7166 5.90956 22.3512L12.7606 15.5002L5.90956 8.64918C5.54633 8.28585 5.34229 7.79313 5.34229 7.27937C5.34229 6.76562 5.54633 6.27289 5.90956 5.90956V5.90956Z" fill="#EBEBEB"/>
</svg>
