<svg width="60" height="61" viewBox="0 0 60 61" fill="none" xmlns="http://www.w3.org/2000/svg">
<path d="M58.8919 54.096C58.796 53.7824 58.6404 53.4911 58.4338 53.2388C58.2272 52.9864 57.9738 52.7779 57.688 52.6251C57.4022 52.4724 57.0896 52.3784 56.7681 52.3485C56.4465 52.3186 56.1223 52.3534 55.814 52.451L52.6182 53.451L50.3295 46.6085C52.7334 45.2367 54.6085 43.076 55.6481 40.4798C56.6877 37.8835 56.8303 35.0053 56.0525 32.316L51.5218 18.6285C50.9515 16.7599 49.6909 15.189 48.0051 14.2462C46.3192 13.3034 44.3396 13.0623 42.4825 13.5735L33.013 16.2585C31.655 16.6427 30.4356 17.4191 29.5025 18.4935C28.5694 17.4191 27.35 16.6427 25.992 16.2585L16.52 13.5735C14.6764 13.0563 12.7075 13.2856 11.0267 14.2133C9.3458 15.1409 8.08369 16.6947 7.50532 18.5485L2.91561 32.441C2.16833 35.1283 2.33569 37.9935 3.39057 40.572C4.44545 43.1504 6.32597 45.2908 8.72711 46.646L6.40645 53.466L3.19832 52.451C2.89002 52.3525 2.56565 52.3167 2.24375 52.3457C1.92185 52.3747 1.60872 52.4679 1.32223 52.6199C1.03574 52.772 0.781512 52.9799 0.574051 53.2319C0.36659 53.4839 0.209963 53.775 0.113113 54.0885C0.0162631 54.402 -0.0189132 54.7319 0.00959259 55.0592C0.0380984 55.3866 0.129728 55.705 0.27925 55.9964C0.428771 56.2877 0.633257 56.5463 0.881031 56.7572C1.12881 56.9682 1.41502 57.1275 1.72332 57.226L7.03332 58.9035C7.0702 58.9035 7.09232 58.946 7.1292 58.961C7.16607 58.976 7.25703 58.976 7.32095 58.9935L12.6826 60.686C13.3052 60.8829 13.9793 60.8202 14.5565 60.5117C15.1337 60.2032 15.5668 59.6742 15.7604 59.041C15.954 58.4078 15.8924 57.7223 15.5891 57.1353C15.2857 56.5483 14.7655 56.1079 14.1428 55.911L11.1043 54.9485L13.4029 48.1985C13.8587 48.258 14.3175 48.2914 14.7771 48.2985C17.4349 48.2918 20.0191 47.4092 22.1421 45.783C24.2651 44.1568 25.8125 41.8745 26.5525 39.2785L29.5025 30.3885L32.4107 39.1385C33.1275 41.7676 34.6705 44.086 36.8042 45.7399C38.9379 47.3938 41.5451 48.2924 44.2279 48.2985C44.7055 48.2939 45.1825 48.2605 45.6562 48.1985L47.9129 54.9485L44.8548 55.9135C44.2321 56.1104 43.7119 56.5508 43.4085 57.1378C43.1052 57.7248 43.0436 58.4103 43.2372 59.0435C43.4308 59.6767 43.8639 60.2057 44.4411 60.5142C45.0183 60.8227 45.6924 60.8854 46.315 60.6885L51.6619 59.001C51.7258 58.9835 51.7922 59.001 51.8561 58.9685C51.92 58.936 51.92 58.921 51.9594 58.906L57.2743 57.2285C57.5829 57.131 57.8696 56.9726 58.1179 56.7624C58.3663 56.5522 58.5715 56.2942 58.7217 56.0033C58.8719 55.7123 58.9643 55.3941 58.9935 55.0669C59.0227 54.7396 58.9882 54.4097 58.8919 54.096ZM32.8384 22.2785C32.9948 21.9855 33.2079 21.7278 33.4647 21.5207C33.7216 21.3136 34.017 21.1615 34.3331 21.0735L43.8002 18.391C44.0115 18.3308 44.2297 18.2997 44.4492 18.2985C44.9898 18.3043 45.5142 18.4871 45.9447 18.8199C46.3751 19.1527 46.6886 19.6177 46.8387 20.146L48.7094 25.7985H33.1654L32.6369 24.206C32.5426 23.8872 32.5119 23.5525 32.5465 23.2216C32.5811 22.8906 32.6804 22.5699 32.8384 22.2785ZM14.5509 18.2985C14.771 18.2989 14.9901 18.3292 15.2024 18.3885L24.6719 21.0735C25.2975 21.249 25.8294 21.6689 26.1518 22.2416C26.4742 22.8144 26.5608 23.4936 26.3927 24.131L25.8396 25.7985H10.2955L12.1884 20.0735C12.3447 19.5601 12.6582 19.111 13.0832 18.7916C13.5082 18.4723 14.0225 18.2995 14.5509 18.2985ZM21.862 37.7985C21.4693 39.2255 20.6698 40.5023 19.5643 41.4676C18.4587 42.4329 17.0968 43.0436 15.6503 43.2225C14.2038 43.4015 12.7377 43.1406 11.4368 42.4729C10.136 41.8053 9.05876 40.7607 8.34115 39.471C7.39106 37.7862 7.1331 35.7881 7.62332 33.911L8.64107 30.7985H24.1827L21.862 37.7985ZM40.624 42.3185C39.7626 41.8214 39.0076 41.1542 38.4035 40.3561C37.7994 39.5579 37.3582 38.645 37.1061 37.671L34.8223 30.7985H50.3664L51.3497 33.7835C51.742 35.2131 51.7085 36.7289 51.2532 38.139C50.798 39.5492 49.9416 40.7903 48.7924 41.7052C47.6432 42.6201 46.2529 43.1677 44.7975 43.2786C43.3421 43.3896 41.8871 43.0589 40.6166 42.3285L40.624 42.3185Z" fill="#EBEBEB"/>
<path d="M38.2368 10.5484C38.5271 10.6968 38.8434 10.7852 39.1674 10.8086C39.4914 10.8319 39.8168 10.7897 40.1247 10.6844C40.4327 10.5791 40.717 10.4128 40.9613 10.1951C41.2057 9.97733 41.4051 9.71251 41.5482 9.41591L44.0065 4.41591C44.298 3.82249 44.3457 3.13563 44.1391 2.50645C43.9326 1.87726 43.4887 1.35729 42.9052 1.06091C42.3217 0.764528 41.6463 0.716024 41.0276 0.926065C40.4089 1.13611 39.8976 1.58749 39.6061 2.18091L37.1478 7.18091C37.001 7.47457 36.9127 7.79483 36.888 8.1233C36.8633 8.45177 36.9027 8.78196 37.0039 9.09489C37.1051 9.40783 37.2661 9.69734 37.4777 9.94678C37.6893 10.1962 37.9473 10.4007 38.2368 10.5484Z" fill="#EBEBEB"/>
<path d="M17.4689 9.41591C17.7603 10.011 18.2723 10.464 18.8921 10.6752C19.199 10.7798 19.5232 10.8218 19.8461 10.799C20.169 10.7762 20.4843 10.6889 20.7741 10.5422C21.0638 10.3954 21.3223 10.1921 21.5348 9.94371C21.7472 9.69537 21.9095 9.40691 22.0124 9.09479C22.1152 8.78267 22.1566 8.453 22.1341 8.12462C22.1117 7.79623 22.0259 7.47556 21.8816 7.18091L19.4232 2.18091C19.2789 1.88707 19.0791 1.62502 18.8352 1.40972C18.5913 1.19441 18.3081 1.03007 18.0018 0.926065C17.3831 0.716024 16.7077 0.764528 16.1242 1.06091C15.5406 1.35729 15.0968 1.87726 14.8902 2.50645C14.6837 3.13563 14.7314 3.82249 15.0228 4.41591L17.4689 9.41591Z" fill="#EBEBEB"/>
<path d="M29.5023 10.7983C30.1543 10.7983 30.7796 10.5349 31.2406 10.0661C31.7016 9.59727 31.9606 8.96138 31.9606 8.29834V3.29834C31.9606 2.6353 31.7016 1.99941 31.2406 1.53057C30.7796 1.06173 30.1543 0.79834 29.5023 0.79834C28.8503 0.79834 28.225 1.06173 27.764 1.53057C27.3029 1.99941 27.0439 2.6353 27.0439 3.29834V8.29834C27.0439 8.96138 27.3029 9.59727 27.764 10.0661C28.225 10.5349 28.8503 10.7983 29.5023 10.7983Z" fill="#EBEBEB"/>
</svg>
