<svg width="43" height="54" viewBox="0 0 43 54" fill="none" xmlns="http://www.w3.org/2000/svg">
<path d="M18 27.2974C18.5967 27.2974 19.169 27.53 19.591 27.9442C20.0129 28.3583 20.25 28.92 20.25 29.5057C20.25 30.0914 20.0129 30.6531 19.591 31.0672C19.169 31.4814 18.5967 31.714 18 31.714H11.25C10.6533 31.714 10.081 31.4814 9.65901 31.0672C9.23705 30.6531 9 30.0914 9 29.5057C9 28.92 9.23705 28.3583 9.65901 27.9442C10.081 27.53 10.6533 27.2974 11.25 27.2974H18ZM31.5 20.6724C31.5 20.0867 31.2629 19.525 30.841 19.1108C30.419 18.6967 29.8467 18.464 29.25 18.464H11.25C10.6533 18.464 10.081 18.6967 9.65901 19.1108C9.23705 19.525 9 20.0867 9 20.6724C9 21.258 9.23705 21.8197 9.65901 22.2339C10.081 22.648 10.6533 22.8807 11.25 22.8807H29.25C29.8467 22.8807 30.419 22.648 30.841 22.2339C31.2629 21.8197 31.5 21.258 31.5 20.6724ZM11.25 14.0474H29.25C29.8467 14.0474 30.419 13.8147 30.841 13.4006C31.2629 12.9864 31.5 12.4247 31.5 11.839C31.5 11.2533 31.2629 10.6916 30.841 10.2775C30.419 9.86336 29.8467 9.6307 29.25 9.6307H11.25C10.6533 9.6307 10.081 9.86336 9.65901 10.2775C9.23705 10.6916 9 11.2533 9 11.839C9 12.4247 9.23705 12.9864 9.65901 13.4006C10.081 13.8147 10.6533 14.0474 11.25 14.0474ZM38.25 43.7362V52.2007C38.2502 52.5158 38.1551 52.8237 37.9768 53.0857C37.7986 53.3477 37.5452 53.5519 37.2487 53.6725C36.9521 53.793 36.6258 53.8246 36.311 53.7631C35.9963 53.7016 35.7071 53.5498 35.4802 53.327L33.75 51.631L32.0197 53.327C31.7929 53.5498 31.5037 53.7016 31.189 53.7631C30.8742 53.8246 30.5479 53.793 30.2513 53.6725C29.9548 53.5519 29.7014 53.3477 29.5231 53.0857C29.3449 52.8237 29.2498 52.5158 29.25 52.2007V43.7362C27.534 42.7685 26.1922 41.2711 25.4336 39.4771C24.675 37.6831 24.542 35.6932 25.0555 33.8174C25.569 31.9415 26.7001 30.285 28.2727 29.1057C29.8452 27.9264 31.771 27.2907 33.75 27.2974C34.5106 27.3067 35.2668 27.4121 36 27.6109V11.839C36 10.082 35.2888 8.39688 34.023 7.15445C32.7571 5.91202 31.0402 5.21403 29.25 5.21403H11.25C9.45979 5.21403 7.7429 5.91202 6.47703 7.15445C5.21116 8.39688 4.5 10.082 4.5 11.839V38.339C4.5 40.0961 5.21116 41.7812 6.47703 43.0236C7.7429 44.266 9.45979 44.964 11.25 44.964H22.5C23.0967 44.964 23.669 45.1967 24.091 45.6108C24.5129 46.025 24.75 46.5867 24.75 47.1724C24.75 47.758 24.5129 48.3197 24.091 48.7339C23.669 49.148 23.0967 49.3807 22.5 49.3807H11.25C8.26741 49.3772 5.408 48.2127 3.29899 46.1428C1.18998 44.0728 0.00357268 41.2664 0 38.339V11.839C0.00357268 8.91167 1.18998 6.10522 3.29899 4.03527C5.408 1.96531 8.26741 0.80087 11.25 0.797363L29.25 0.797363C32.2326 0.80087 35.092 1.96531 37.201 4.03527C39.31 6.10522 40.4964 8.91167 40.5 11.839V30.3493C41.3814 31.3207 42.0302 32.4733 42.399 33.7227C42.7679 34.9721 42.8473 36.2866 42.6316 37.57C42.4159 38.8534 41.9105 40.0732 41.1523 41.1402C40.3942 42.2071 39.4026 43.0941 38.25 43.7362ZM38.25 36.1307C38.25 35.2572 37.9861 34.4032 37.4916 33.6769C36.9971 32.9506 36.2943 32.3845 35.4721 32.0502C34.6498 31.7159 33.745 31.6285 32.8721 31.7989C31.9992 31.9693 31.1974 32.39 30.568 33.0076C29.9387 33.6253 29.5101 34.4123 29.3365 35.269C29.1628 36.1258 29.2519 37.0138 29.5925 37.8209C29.9331 38.6279 30.5099 39.3177 31.2499 39.803C31.99 40.2883 32.86 40.5474 33.75 40.5474C34.9435 40.5474 36.0881 40.082 36.932 39.2537C37.7759 38.4255 38.25 37.3021 38.25 36.1307Z" fill="#EBEBEB"/>
</svg>
