<svg width="24" height="20" viewBox="0 0 24 20" fill="none" xmlns="http://www.w3.org/2000/svg">
<path fill-rule="evenodd" clip-rule="evenodd" d="M3.57 19.9018C2.62318 19.9018 1.71513 19.51 1.04563 18.8128C0.376124 18.1155 0 17.1698 0 16.1837V3.7899C0 2.80379 0.376124 1.85807 1.04563 1.16079C1.71513 0.463507 2.62318 0.0717773 3.57 0.0717773H20.23C21.1768 0.0717773 22.0849 0.463507 22.7544 1.16079C23.4239 1.85807 23.8 2.80379 23.8 3.7899V16.1837C23.8 17.1698 23.4239 18.1155 22.7544 18.8128C22.0849 19.51 21.1768 19.9018 20.23 19.9018H3.57ZM6.69375 5.30194C6.57253 5.19414 6.43175 5.11279 6.27977 5.06274C6.12778 5.01269 5.96769 4.99496 5.809 5.01058C5.6503 5.02621 5.49624 5.07488 5.35596 5.15371C5.21567 5.23253 5.09202 5.33991 4.99235 5.46947C4.89268 5.59902 4.81901 5.74811 4.77572 5.90789C4.73243 6.06766 4.72041 6.23487 4.74036 6.39958C4.76031 6.56428 4.81183 6.72314 4.89186 6.86671C4.97189 7.01029 5.0788 7.13565 5.20625 7.23536L9.66875 10.9547C10.3019 11.4827 11.0889 11.7704 11.9 11.7704C12.7111 11.7704 13.4981 11.4827 14.1312 10.9547L18.5937 7.2366C18.7158 7.13488 18.8174 7.00912 18.8928 6.86649C18.9682 6.72387 19.0159 6.56718 19.0331 6.40537C19.0503 6.24355 19.0368 6.07979 18.9933 5.92343C18.9497 5.76706 18.8771 5.62116 18.7794 5.49404C18.6817 5.36693 18.561 5.2611 18.424 5.18259C18.2871 5.10408 18.1366 5.05443 17.9813 5.03648C17.8259 5.01852 17.6687 5.03262 17.5185 5.07795C17.3684 5.12329 17.2283 5.19898 17.1062 5.3007L12.6437 9.01883C12.4327 9.19482 12.1704 9.29071 11.9 9.29071C11.6296 9.29071 11.3673 9.19482 11.1562 9.01883L6.69375 5.3007V5.30194Z" fill="#EBEBEB"/>
</svg>
