<svg width="23" height="24" viewBox="0 0 23 24" fill="none" xmlns="http://www.w3.org/2000/svg">
<path d="M11.105 0.0664062C4.97504 0.0664062 0 5.24874 0 11.6341C0 18.0195 4.97504 23.2018 11.105 23.2018C17.235 23.2018 22.21 18.0195 22.21 11.6341C22.21 5.24874 17.235 0.0664062 11.105 0.0664062ZM11.105 3.53672C12.9484 3.53672 14.4365 5.08679 14.4365 7.00703C14.4365 8.92727 12.9484 10.4773 11.105 10.4773C9.26157 10.4773 7.7735 8.92727 7.7735 7.00703C7.7735 5.08679 9.26157 3.53672 11.105 3.53672ZM11.105 19.9629C9.78557 19.9629 8.48665 19.6227 7.32406 18.9728C6.16147 18.3229 5.17135 17.3834 4.442 16.2381C4.47532 13.9361 8.884 12.6752 11.105 12.6752C13.3149 12.6752 17.7347 13.9361 17.768 16.2381C17.0386 17.3834 16.0485 18.3229 14.8859 18.9728C13.7234 19.6227 12.4244 19.9629 11.105 19.9629Z" fill="#F8F8F8"/>
</svg>
