<svg width="21" height="25" viewBox="0 0 21 25" fill="none" xmlns="http://www.w3.org/2000/svg">
<path d="M16.5 15.061C15.4403 15.061 14.4662 15.4276 13.6973 16.0405L8.89331 13.038C9.03558 12.3944 9.03558 11.7276 8.89331 11.0841L13.6973 8.08154C14.4662 8.69452 15.4403 9.06104 16.5 9.06104C18.9853 9.06104 21 7.0463 21 4.56104C21 2.07577 18.9853 0.0610352 16.5 0.0610352C14.0147 0.0610352 12 2.07577 12 4.56104C12 4.89657 12.037 5.22338 12.1067 5.53796L7.30266 8.54049C6.53377 7.92755 5.55975 7.56104 4.5 7.56104C2.01473 7.56104 0 9.57577 0 12.061C0 14.5463 2.01473 16.561 4.5 16.561C5.55975 16.561 6.53377 16.1945 7.30266 15.5816L12.1067 18.5841C12.0357 18.9049 11.9999 19.2325 12 19.561C12 22.0463 14.0147 24.061 16.5 24.061C18.9853 24.061 21 22.0463 21 19.561C21 17.0758 18.9853 15.061 16.5 15.061Z" fill="#EBEBEB"/>
</svg>
