<svg width="28" height="26" viewBox="0 0 28 26" fill="none" xmlns="http://www.w3.org/2000/svg">
<path d="M26.3779 9.03478L18.4436 7.88165L14.8967 0.691027C14.7998 0.494152 14.6404 0.334777 14.4436 0.237902C13.9498 -0.00584783 13.3498 0.197277 13.1029 0.691027L9.55606 7.88165L1.62169 9.03478C1.40294 9.06603 1.20294 9.16915 1.04981 9.3254C0.864695 9.51567 0.762685 9.77166 0.766201 10.0371C0.769717 10.3025 0.87847 10.5557 1.06856 10.741L6.80919 16.3379L5.45294 24.241C5.42113 24.4249 5.44148 24.614 5.51166 24.7868C5.58185 24.9597 5.69907 25.1094 5.85003 25.2191C6.00099 25.3287 6.17965 25.3939 6.36575 25.4071C6.55185 25.4204 6.73795 25.3813 6.90294 25.2942L13.9998 21.5629L21.0967 25.2942C21.2904 25.3973 21.5154 25.4317 21.7311 25.3942C22.2748 25.3004 22.6404 24.7848 22.5467 24.241L21.1904 16.3379L26.9311 10.741C27.0873 10.5879 27.1904 10.3879 27.2217 10.1692C27.3061 9.62228 26.9248 9.11603 26.3779 9.03478Z" fill="#FFC700"/>
</svg>
