<svg width="54" height="55" viewBox="0 0 54 55" fill="none" xmlns="http://www.w3.org/2000/svg">
<path d="M39.375 54.4082C37.334 54.4626 35.3088 54.035 33.464 53.1601C31.6192 52.2852 30.0066 50.9876 28.7572 49.3727C27.7862 48.0507 26.4978 46.9945 25.011 46.3016C23.5242 45.6088 21.8869 45.3015 20.25 45.4082C9.4635 45.4082 0 34.894 0 22.9082C0.00655109 16.9428 2.37918 11.2237 6.59733 7.00554C10.8155 2.78739 16.5346 0.414754 22.5 0.408203C44.487 0.408203 54 26.4812 54 39.7832C53.9952 43.6605 52.4529 47.3777 49.7112 50.1194C46.9695 52.8611 43.2523 54.4034 39.375 54.4082ZM22.5 4.9082C-1.053 5.76095 -0.855 38.8945 20.25 40.9082C22.5038 40.8047 24.7498 41.2407 26.8012 42.1799C28.8526 43.1191 30.6502 44.5344 32.0445 46.3082C37.3005 53.623 49.725 48.9475 49.5 39.7832C49.5 29.5187 41.7308 4.9082 22.5 4.9082ZM15.0907 31.249L30.8407 15.499C31.2506 15.0746 31.4774 14.5062 31.4723 13.9163C31.4671 13.3264 31.2305 12.762 30.8133 12.3449C30.3962 11.9277 29.8318 11.6911 29.2419 11.6859C28.652 11.6808 28.0836 11.9076 27.6593 12.3175L11.9093 28.0675C11.4994 28.4918 11.2726 29.0602 11.2777 29.6501C11.2829 30.24 11.5195 30.8044 11.9367 31.2215C12.3538 31.6387 12.9182 31.8753 13.5081 31.8805C14.098 31.8856 14.6664 31.6588 15.0907 31.249ZM24.0907 35.749L37.5908 22.249C38.0006 21.8246 38.2274 21.2562 38.2223 20.6663C38.2171 20.0764 37.9805 19.512 37.5633 19.0949C37.1462 18.6777 36.5818 18.4411 35.9919 18.4359C35.402 18.4308 34.8336 18.6576 34.4093 19.0675L20.9093 32.5675C20.4994 32.9918 20.2726 33.5602 20.2777 34.1501C20.2829 34.74 20.5195 35.3044 20.9367 35.7215C21.3538 36.1387 21.9182 36.3753 22.5081 36.3805C23.098 36.3856 23.6664 36.1588 24.0907 35.749ZM33.0907 40.249L42.0908 31.249C42.5006 30.8246 42.7274 30.2562 42.7223 29.6663C42.7171 29.0764 42.4805 28.512 42.0633 28.0949C41.6462 27.6777 41.0818 27.4411 40.4919 27.4359C39.902 27.4308 39.3336 27.6576 38.9092 28.0675L29.9093 37.0675C29.4994 37.4918 29.2726 38.0602 29.2777 38.6501C29.2829 39.24 29.5195 39.8044 29.9367 40.2215C30.3538 40.6387 30.9182 40.8753 31.5081 40.8805C32.098 40.8856 32.6664 40.6588 33.0907 40.249ZM42.0908 44.749L44.3408 42.499C44.7506 42.0746 44.9774 41.5062 44.9723 40.9163C44.9671 40.3264 44.7305 39.762 44.3133 39.3449C43.8962 38.9277 43.3318 38.6911 42.7419 38.6859C42.152 38.6808 41.5836 38.9076 41.1592 39.3175L38.9092 41.5675C38.4994 41.9918 38.2726 42.5602 38.2777 43.1501C38.2829 43.74 38.5195 44.3044 38.9367 44.7215C39.3538 45.1387 39.9182 45.3753 40.5081 45.3805C41.098 45.3856 41.6664 45.1588 42.0908 44.749ZM12.8407 19.999L19.5907 13.249C20.0006 12.8246 20.2274 12.2562 20.2223 11.6663C20.2171 11.0764 19.9805 10.512 19.5633 10.0949C19.1462 9.67769 18.5818 9.44106 17.9919 9.43594C17.402 9.43081 16.8336 9.6576 16.4093 10.0675L9.65925 16.8175C9.24939 17.2418 9.02261 17.8102 9.02773 18.4001C9.03286 18.99 9.26949 19.5544 9.68666 19.9715C10.1038 20.3887 10.6682 20.6253 11.2581 20.6305C11.848 20.6356 12.4164 20.4088 12.8407 19.999Z" fill="#EBEBEB"/>
</svg>
