<svg width="52" height="62" viewBox="0 0 52 62" fill="none" xmlns="http://www.w3.org/2000/svg">
<path d="M25.997 2.58333V18.0833C25.9932 21.0599 24.9569 23.9441 23.0627 26.2499C21.1685 28.5557 18.5322 30.1421 15.5982 30.7417V59.4167C15.5982 60.1018 15.3243 60.7589 14.8368 61.2434C14.3492 61.7278 13.688 62 12.9985 62C12.309 62 11.6478 61.7278 11.1602 61.2434C10.6727 60.7589 10.3988 60.1018 10.3988 59.4167V30.7417C7.46482 30.1421 4.82855 28.5557 2.93433 26.2499C1.04012 23.9441 0.00378133 21.0599 0 18.0833V2.58333C0 1.89819 0.273896 1.24111 0.761435 0.756641C1.24897 0.272172 1.91022 0 2.5997 0C3.28919 0 3.95043 0.272172 4.43797 0.756641C4.92551 1.24111 5.19941 1.89819 5.19941 2.58333V18.0833C5.20607 19.6805 5.70917 21.2366 6.63987 22.5388C7.57057 23.841 8.88342 24.8256 10.3988 25.358V2.58333C10.3988 1.89819 10.6727 1.24111 11.1602 0.756641C11.6478 0.272172 12.309 0 12.9985 0C13.688 0 14.3492 0.272172 14.8368 0.756641C15.3243 1.24111 15.5982 1.89819 15.5982 2.58333V25.358C17.1136 24.8256 18.4265 23.841 19.3572 22.5388C20.2879 21.2366 20.791 19.6805 20.7976 18.0833V2.58333C20.7976 1.89819 21.0715 1.24111 21.5591 0.756641C22.0466 0.272172 22.7078 0 23.3973 0C24.0868 0 24.7481 0.272172 25.2356 0.756641C25.7231 1.24111 25.997 1.89819 25.997 2.58333ZM51.9941 25.8333C51.8778 30.7428 50.6486 35.563 48.3981 39.9351C46.1476 44.3072 42.9336 48.1185 38.9955 51.0854V59.4167C38.9955 60.1018 38.7216 60.7589 38.2341 61.2434C37.7466 61.7278 37.0853 62 36.3958 62C35.7064 62 35.0451 61.7278 34.5576 61.2434C34.07 60.7589 33.7961 60.1018 33.7961 59.4167V5.16667C33.7728 4.19601 34.0397 3.24029 34.5631 2.4204C35.0865 1.60051 35.8428 0.953278 36.7364 0.560583C37.7629 0.14561 38.8888 0.0367613 39.9765 0.247339C41.0642 0.457917 42.0667 0.978801 42.8613 1.74633C48.8909 8.3208 52.1589 16.9397 51.9941 25.8333ZM46.7947 25.8333C46.8684 18.2697 44.0855 10.9535 38.9955 5.32942V44.0975C43.8676 39.2363 46.6617 32.6929 46.7947 25.8333Z" fill="#EBEBEB"/>
</svg>
