<svg width="60" height="60" viewBox="0 0 60 60" fill="none" xmlns="http://www.w3.org/2000/svg">
<path d="M59.3208 55.7824C59.7753 56.266 60.0192 56.9105 59.9988 57.574C59.9784 58.2375 59.6954 58.8657 59.2121 59.3205C58.7287 59.7752 58.0846 60.0192 57.4215 59.9988C56.7583 59.9784 56.1304 59.6953 55.6759 59.2117L41.9688 44.6068C39.3789 44.6893 27.4517 45.0445 31.1891 39.4042C31.502 39.0859 31.8955 38.8587 32.3274 38.7468C32.7594 38.6349 33.2136 38.6425 33.6416 38.7688C36.4362 39.6362 39.3863 39.8837 42.2863 39.4942C42.7874 39.4299 43.2966 39.4873 43.7709 39.6614C44.2452 39.8356 44.6706 40.1214 45.0112 40.4947L59.3208 55.7824ZM37.4989 34.9869C39.1404 34.9893 40.7662 34.6674 42.2831 34.0399C43.8 33.4124 45.1782 32.4915 46.3387 31.3301L59.2658 18.3936C59.4983 18.1613 59.6827 17.8856 59.8086 17.582C59.9345 17.2785 59.9995 16.9531 59.9997 16.6244C59.9999 16.2958 59.9355 15.9703 59.81 15.6666C59.6845 15.3629 59.5004 15.0868 59.2683 14.8543C59.0362 14.6217 58.7606 14.4372 58.4572 14.3112C58.1538 14.1852 57.8286 14.1202 57.5002 14.12C57.1717 14.1198 56.8464 14.1843 56.5428 14.3098C56.2392 14.4354 55.9634 14.6195 55.7309 14.8518L42.8038 27.7883C41.706 28.8772 40.2987 29.6 38.7745 29.8579C37.2503 30.1158 35.6837 29.8961 34.289 29.229L51.766 11.7427C52.0048 11.512 52.1953 11.236 52.3263 10.9308C52.4573 10.6256 52.5263 10.2974 52.5291 9.96531C52.532 9.6332 52.4688 9.30383 52.3431 8.99643C52.2174 8.68904 52.0318 8.40977 51.797 8.17492C51.5623 7.94007 51.2832 7.75434 50.9759 7.62858C50.6687 7.50281 50.3395 7.43952 50.0076 7.44241C49.6757 7.4453 49.3476 7.5143 49.0426 7.64538C48.7376 7.77647 48.4618 7.96702 48.2311 8.20592L30.7491 25.6922C30.0824 24.2969 29.8629 22.7294 30.1206 21.2044C30.3784 19.6794 31.1008 18.2714 32.1891 17.1729L45.1237 4.23892C45.5791 3.76718 45.8311 3.13535 45.8254 2.47953C45.8197 1.8237 45.5568 1.19636 45.0933 0.732603C44.6298 0.268849 44.0028 0.00579348 43.3473 9.45542e-05C42.6918 -0.00560437 42.0603 0.246509 41.5888 0.702134L28.6592 13.6362C26.6261 15.6772 25.3582 18.357 25.069 21.2241C24.7799 24.0911 25.4872 26.9703 27.0717 29.3766L0.732479 55.7299C0.277097 56.2016 0.0251181 56.8335 0.030814 57.4893C0.0365099 58.1451 0.299425 58.7725 0.762932 59.2362C1.22644 59.7 1.85345 59.963 2.50893 59.9687C3.1644 59.9744 3.79589 59.7223 4.26738 59.2667L30.6066 32.9134C32.6512 34.2657 35.048 34.9868 37.4989 34.9869ZM13.6296 32.3981C15.7021 34.3516 17.6145 31.7578 19.007 30.3696C19.583 29.787 20.0071 29.0717 20.242 28.2866C20.477 27.5016 20.5156 26.6708 20.3544 25.8673C18.812 21.5602 22.5819 16.5326 19.462 13.0684L8.32227 1.40249C7.63511 0.73451 6.76748 0.282507 5.8265 0.102288C4.88552 -0.0779305 3.91238 0.0215256 3.02725 0.388377C2.14212 0.755228 1.38375 1.37341 0.845769 2.1666C0.307793 2.95979 0.0137685 3.89325 0 4.85173C0.592483 16.3926 4.83736 22.2805 13.6296 32.3981Z" fill="#EBEBEB"/>
</svg>
